<svg xmlns="http://www.w3.org/2000/svg" xmlns:xlink="http://www.w3.org/1999/xlink" width="500" zoomAndPan="magnify" viewBox="0 0 375 374.999991" height="500" preserveAspectRatio="xMidYMid meet" version="1.0"><defs><clipPath id="id1"><path d="M 69 323 L 135 323 L 135 335.386719 L 69 335.386719 Z M 69 323 " clip-rule="nonzero"/></clipPath><clipPath id="id2"><path d="M 331 308 L 375 308 L 375 335.386719 L 331 335.386719 Z M 331 308 " clip-rule="nonzero"/></clipPath><clipPath id="id3"><path d="M 87 39.886719 L 225 39.886719 L 225 85 L 87 85 Z M 87 39.886719 " clip-rule="nonzero"/></clipPath></defs><path fill="#db868e" d="M 179.789062 268.996094 L 147.472656 268.996094 L 147.472656 247.007812 L 179.789062 247.007812 Z M 313.074219 60.222656 L 261.164062 60.222656 L 261.164062 84.097656 L 313.074219 84.097656 Z M 314.058594 293.210938 L 282.617188 293.210938 L 282.617188 316.398438 L 314.058594 316.398438 Z M 314.058594 293.210938 " fill-opacity="1" fill-rule="nonzero"/><g clip-path="url(#id1)"><path fill="#000000" d="M 90.671875 335.324219 L 70.320312 335.324219 C 70.167969 335.324219 70.023438 335.292969 69.890625 335.222656 C 69.753906 335.15625 69.636719 335.0625 69.546875 334.941406 C 69.453125 334.820312 69.390625 334.6875 69.363281 334.535156 C 69.332031 334.386719 69.339844 334.238281 69.378906 334.09375 L 70.417969 330.140625 L 70.417969 323.148438 L 79.894531 323.148438 L 79.894531 328.496094 L 90.925781 334.257812 C 91.070312 334.292969 91.183594 334.375 91.261719 334.503906 C 91.339844 334.632812 91.363281 334.769531 91.328125 334.917969 C 91.292969 335.0625 91.210938 335.175781 91.082031 335.257812 C 90.957031 335.335938 90.820312 335.359375 90.671875 335.324219 Z M 134.34375 334.292969 L 123.304688 328.53125 L 123.304688 323.148438 L 113.84375 323.148438 L 113.84375 330.140625 L 112.796875 334.109375 C 112.757812 334.257812 112.753906 334.40625 112.785156 334.554688 C 112.816406 334.703125 112.878906 334.839844 112.972656 334.957031 C 113.0625 335.078125 113.179688 335.171875 113.316406 335.242188 C 113.453125 335.308594 113.59375 335.34375 113.746094 335.34375 L 134.132812 335.34375 C 134.265625 335.351562 134.386719 335.3125 134.492188 335.230469 C 134.597656 335.148438 134.664062 335.042969 134.691406 334.910156 C 134.71875 334.78125 134.703125 334.65625 134.636719 334.539062 C 134.570312 334.421875 134.476562 334.339844 134.351562 334.292969 Z M 134.34375 334.292969 " fill-opacity="1" fill-rule="nonzero"/></g><path fill="#000000" d="M 45.8125 302.304688 L 25.050781 302.304688 C 24.894531 302.304688 24.75 302.269531 24.609375 302.199219 C 24.46875 302.132812 24.355469 302.035156 24.257812 301.914062 C 24.164062 301.789062 24.101562 301.652344 24.074219 301.5 C 24.042969 301.347656 24.050781 301.195312 24.089844 301.046875 L 25.171875 296.917969 L 25.171875 289.050781 L 34.78125 289.050781 L 34.78125 295.378906 L 46.066406 301.289062 C 46.277344 301.4375 46.351562 301.636719 46.289062 301.882812 C 46.226562 302.132812 46.066406 302.273438 45.8125 302.304688 Z M 45.8125 302.304688 " fill-opacity="1" fill-rule="nonzero"/><path fill="#000000" d="M 23.742188 293.929688 L 6.148438 282.929688 C 6.019531 282.847656 5.910156 282.742188 5.828125 282.609375 C 5.746094 282.480469 5.699219 282.335938 5.683594 282.183594 C 5.667969 282.027344 5.6875 281.878906 5.742188 281.734375 C 5.796875 281.589844 5.878906 281.464844 5.992188 281.355469 L 9.730469 277.859375 L 13.226562 272.082031 L 21.382812 277.1875 L 18.1875 282.433594 L 24.5 293.203125 C 24.605469 293.441406 24.5625 293.652344 24.375 293.832031 C 24.1875 294.011719 23.976562 294.042969 23.742188 293.929688 Z M 23.742188 293.929688 " fill-opacity="1" fill-rule="nonzero"/><path fill="#ffffff" d="M 322.871094 114.933594 L 322.871094 220.71875 C 322.871094 221.390625 322.804688 222.050781 322.675781 222.710938 C 322.542969 223.367188 322.351562 224.003906 322.09375 224.625 C 321.835938 225.242188 321.523438 225.832031 321.152344 226.390625 C 320.777344 226.945312 320.355469 227.460938 319.882812 227.9375 C 319.410156 228.410156 318.894531 228.832031 318.335938 229.207031 C 317.78125 229.578125 317.191406 229.894531 316.574219 230.148438 C 315.953125 230.40625 315.316406 230.601562 314.660156 230.730469 C 314.003906 230.863281 313.339844 230.929688 312.671875 230.929688 L 143.882812 230.929688 C 143.210938 230.929688 142.546875 230.863281 141.890625 230.730469 C 141.234375 230.601562 140.597656 230.40625 139.976562 230.148438 C 139.359375 229.894531 138.773438 229.578125 138.214844 229.207031 C 137.660156 228.832031 137.144531 228.410156 136.667969 227.9375 C 136.195312 227.460938 135.773438 226.945312 135.402344 226.390625 C 135.027344 225.832031 134.714844 225.242188 134.457031 224.625 C 134.203125 224.003906 134.007812 223.367188 133.875 222.710938 C 133.746094 222.050781 133.679688 221.390625 133.679688 220.71875 L 133.679688 114.933594 C 133.679688 114.261719 133.746094 113.597656 133.875 112.941406 C 134.007812 112.285156 134.203125 111.644531 134.457031 111.027344 C 134.714844 110.40625 135.027344 109.820312 135.402344 109.261719 C 135.773438 108.703125 136.195312 108.1875 136.667969 107.714844 C 137.144531 107.242188 137.660156 106.816406 138.214844 106.445312 C 138.773438 106.074219 139.359375 105.757812 139.976562 105.5 C 140.597656 105.246094 141.234375 105.050781 141.890625 104.917969 C 142.546875 104.789062 143.210938 104.722656 143.882812 104.722656 L 312.671875 104.722656 C 313.339844 104.722656 314.003906 104.789062 314.660156 104.917969 C 315.316406 105.050781 315.953125 105.246094 316.574219 105.5 C 317.191406 105.757812 317.78125 106.074219 318.335938 106.445312 C 318.894531 106.816406 319.410156 107.242188 319.882812 107.714844 C 320.355469 108.1875 320.777344 108.703125 321.152344 109.261719 C 321.523438 109.820312 321.835938 110.40625 322.09375 111.027344 C 322.351562 111.644531 322.542969 112.285156 322.675781 112.941406 C 322.804688 113.597656 322.871094 114.261719 322.871094 114.933594 Z M 322.871094 114.933594 " fill-opacity="1" fill-rule="nonzero"/><path fill="#000000" d="M 312.671875 231.21875 L 143.882812 231.21875 C 143.191406 231.21875 142.503906 231.148438 141.828125 231.015625 C 141.148438 230.878906 140.488281 230.679688 139.851562 230.414062 C 139.210938 230.148438 138.605469 229.824219 138.03125 229.4375 C 137.457031 229.054688 136.925781 228.617188 136.433594 228.128906 C 135.945312 227.636719 135.507812 227.105469 135.125 226.53125 C 134.742188 225.953125 134.417969 225.347656 134.152344 224.707031 C 133.886719 224.070312 133.6875 223.410156 133.550781 222.730469 C 133.414062 222.050781 133.347656 221.367188 133.347656 220.675781 L 133.347656 114.933594 C 133.347656 114.242188 133.414062 113.554688 133.550781 112.875 C 133.6875 112.199219 133.886719 111.539062 134.152344 110.898438 C 134.417969 110.261719 134.742188 109.652344 135.125 109.078125 C 135.507812 108.5 135.945312 107.96875 136.433594 107.480469 C 136.925781 106.992188 137.457031 106.554688 138.03125 106.167969 C 138.605469 105.785156 139.210938 105.460938 139.851562 105.195312 C 140.488281 104.929688 141.148438 104.730469 141.828125 104.59375 C 142.503906 104.457031 143.191406 104.390625 143.882812 104.390625 L 312.671875 104.390625 C 313.359375 104.394531 314.042969 104.464844 314.71875 104.601562 C 315.394531 104.738281 316.050781 104.941406 316.683594 105.210938 C 317.320312 105.476562 317.925781 105.800781 318.496094 106.1875 C 319.066406 106.570312 319.597656 107.007812 320.082031 107.5 C 320.570312 107.988281 321.003906 108.519531 321.386719 109.09375 C 321.765625 109.667969 322.089844 110.273438 322.351562 110.910156 C 322.617188 111.550781 322.816406 112.207031 322.949219 112.882812 C 323.085938 113.558594 323.152344 114.242188 323.152344 114.933594 L 323.152344 220.71875 C 323.148438 221.40625 323.078125 222.085938 322.941406 222.761719 C 322.804688 223.4375 322.605469 224.089844 322.339844 224.726562 C 322.074219 225.363281 321.753906 225.964844 321.371094 226.535156 C 320.988281 227.109375 320.554688 227.636719 320.066406 228.125 C 319.582031 228.613281 319.054688 229.046875 318.480469 229.429688 C 317.910156 229.8125 317.308594 230.136719 316.675781 230.402344 C 316.039062 230.667969 315.386719 230.871094 314.710938 231.007812 C 314.039062 231.144531 313.359375 231.214844 312.671875 231.21875 Z M 143.882812 105.046875 C 143.234375 105.046875 142.589844 105.109375 141.953125 105.238281 C 141.320312 105.363281 140.699219 105.550781 140.101562 105.800781 C 139.503906 106.046875 138.933594 106.351562 138.394531 106.714844 C 137.855469 107.074219 137.355469 107.484375 136.898438 107.945312 C 136.441406 108.402344 136.03125 108.902344 135.671875 109.441406 C 135.308594 109.980469 135.003906 110.550781 134.757812 111.148438 C 134.507812 111.75 134.320312 112.367188 134.195312 113.003906 C 134.066406 113.640625 134.003906 114.285156 134.003906 114.933594 L 134.003906 220.71875 C 134.003906 221.367188 134.066406 222.011719 134.195312 222.648438 C 134.320312 223.285156 134.507812 223.902344 134.757812 224.5 C 135.003906 225.101562 135.308594 225.671875 135.671875 226.210938 C 136.03125 226.75 136.441406 227.25 136.898438 227.707031 C 137.355469 228.167969 137.855469 228.578125 138.394531 228.9375 C 138.933594 229.296875 139.503906 229.601562 140.101562 229.851562 C 140.699219 230.101562 141.320312 230.289062 141.953125 230.414062 C 142.589844 230.542969 143.234375 230.605469 143.882812 230.605469 L 312.671875 230.605469 C 313.320312 230.605469 313.960938 230.539062 314.597656 230.414062 C 315.230469 230.285156 315.847656 230.097656 316.449219 229.847656 C 317.046875 229.601562 317.613281 229.296875 318.152344 228.933594 C 318.691406 228.574219 319.191406 228.164062 319.648438 227.703125 C 320.105469 227.246094 320.515625 226.746094 320.875 226.207031 C 321.234375 225.667969 321.539062 225.097656 321.789062 224.5 C 322.035156 223.898438 322.222656 223.28125 322.351562 222.644531 C 322.476562 222.007812 322.539062 221.367188 322.539062 220.71875 L 322.539062 114.933594 C 322.539062 114.285156 322.476562 113.640625 322.351562 113.003906 C 322.222656 112.371094 322.035156 111.75 321.789062 111.152344 C 321.539062 110.554688 321.234375 109.984375 320.875 109.445312 C 320.515625 108.90625 320.105469 108.40625 319.648438 107.945312 C 319.191406 107.488281 318.691406 107.078125 318.152344 106.71875 C 317.613281 106.355469 317.046875 106.050781 316.449219 105.800781 C 315.847656 105.554688 315.230469 105.367188 314.597656 105.238281 C 313.960938 105.109375 313.320312 105.046875 312.671875 105.046875 Z M 143.882812 105.046875 " fill-opacity="1" fill-rule="nonzero"/><path fill="#000000" d="M 214.488281 213.171875 L 153.347656 213.171875 C 153.0625 213.171875 152.777344 213.144531 152.496094 213.089844 C 152.214844 213.035156 151.941406 212.949219 151.675781 212.839844 C 151.414062 212.730469 151.160156 212.597656 150.921875 212.4375 C 150.683594 212.277344 150.464844 212.097656 150.261719 211.894531 C 150.058594 211.691406 149.878906 211.46875 149.71875 211.230469 C 149.558594 210.992188 149.425781 210.738281 149.3125 210.476562 C 149.203125 210.210938 149.121094 209.9375 149.066406 209.65625 C 149.011719 209.375 148.980469 209.089844 148.980469 208.800781 L 148.980469 187.636719 C 148.980469 187.347656 149.011719 187.066406 149.066406 186.785156 C 149.121094 186.503906 149.203125 186.230469 149.3125 185.964844 C 149.425781 185.699219 149.558594 185.445312 149.71875 185.207031 C 149.878906 184.96875 150.058594 184.75 150.261719 184.546875 C 150.464844 184.34375 150.683594 184.160156 150.921875 184 C 151.160156 183.84375 151.414062 183.707031 151.675781 183.597656 C 151.941406 183.488281 152.214844 183.40625 152.496094 183.347656 C 152.777344 183.292969 153.0625 183.265625 153.347656 183.265625 L 214.488281 183.265625 C 214.777344 183.265625 215.058594 183.292969 215.339844 183.347656 C 215.621094 183.40625 215.894531 183.488281 216.160156 183.597656 C 216.425781 183.707031 216.675781 183.84375 216.914062 184 C 217.152344 184.160156 217.375 184.34375 217.578125 184.546875 C 217.78125 184.75 217.960938 184.96875 218.121094 185.207031 C 218.28125 185.445312 218.414062 185.699219 218.523438 185.964844 C 218.632812 186.230469 218.714844 186.503906 218.773438 186.785156 C 218.828125 187.066406 218.855469 187.347656 218.855469 187.636719 L 218.855469 208.847656 C 218.851562 209.132812 218.824219 209.414062 218.765625 209.691406 C 218.707031 209.972656 218.621094 210.242188 218.511719 210.503906 C 218.398438 210.769531 218.265625 211.015625 218.105469 211.253906 C 217.945312 211.488281 217.765625 211.707031 217.5625 211.910156 C 217.359375 212.109375 217.140625 212.289062 216.902344 212.445312 C 216.664062 212.601562 216.414062 212.738281 216.148438 212.84375 C 215.886719 212.953125 215.613281 213.035156 215.335938 213.089844 C 215.054688 213.144531 214.773438 213.171875 214.488281 213.171875 Z M 153.347656 183.894531 C 152.859375 183.898438 152.386719 183.992188 151.933594 184.179688 C 151.480469 184.371094 151.082031 184.636719 150.734375 184.984375 C 150.386719 185.332031 150.121094 185.734375 149.933594 186.183594 C 149.742188 186.636719 149.648438 187.109375 149.644531 187.601562 L 149.644531 208.8125 C 149.648438 209.300781 149.742188 209.773438 149.929688 210.226562 C 150.117188 210.683594 150.386719 211.082031 150.734375 211.429688 C 151.078125 211.777344 151.480469 212.042969 151.933594 212.234375 C 152.386719 212.421875 152.859375 212.515625 153.347656 212.519531 L 214.488281 212.519531 C 214.980469 212.519531 215.453125 212.421875 215.90625 212.234375 C 216.359375 212.046875 216.761719 211.78125 217.109375 211.433594 C 217.453125 211.085938 217.722656 210.683594 217.910156 210.230469 C 218.097656 209.773438 218.191406 209.300781 218.191406 208.8125 L 218.191406 187.636719 C 218.191406 187.144531 218.097656 186.671875 217.90625 186.21875 C 217.71875 185.765625 217.453125 185.363281 217.105469 185.019531 C 216.757812 184.671875 216.359375 184.402344 215.90625 184.214844 C 215.453125 184.027344 214.980469 183.929688 214.488281 183.929688 Z M 153.347656 183.894531 " fill-opacity="1" fill-rule="nonzero"/><path fill="#000000" d="M 156.179688 206.992188 C 156.09375 206.980469 156.023438 206.941406 155.96875 206.871094 C 155.910156 206.804688 155.878906 206.726562 155.878906 206.636719 C 155.878906 206.550781 155.910156 206.472656 155.96875 206.40625 L 164.746094 197.664062 C 164.808594 197.609375 164.882812 197.578125 164.964844 197.578125 C 165.050781 197.578125 165.121094 197.609375 165.183594 197.664062 L 174.703125 205.289062 L 189.160156 190.496094 C 189.226562 190.4375 189.304688 190.40625 189.394531 190.398438 C 189.488281 190.402344 189.566406 190.4375 189.632812 190.503906 L 202.601562 204.535156 L 211.457031 193.449219 C 211.511719 193.363281 211.585938 193.3125 211.683594 193.296875 C 211.78125 193.28125 211.871094 193.300781 211.949219 193.363281 C 212.027344 193.425781 212.066406 193.507812 212.074219 193.605469 C 212.078125 193.707031 212.042969 193.792969 211.972656 193.859375 L 202.871094 205.226562 C 202.804688 205.300781 202.722656 205.339844 202.625 205.339844 C 202.523438 205.339844 202.441406 205.300781 202.375 205.226562 L 189.421875 191.203125 L 174.941406 205.925781 C 174.792969 206.042969 174.644531 206.042969 174.496094 205.925781 L 164.972656 198.292969 L 156.40625 206.871094 C 156.351562 206.949219 156.273438 206.988281 156.179688 206.992188 Z M 156.179688 206.992188 " fill-opacity="1" fill-rule="nonzero"/><path fill="#db868e" d="M 227.25 90.15625 L 98.253906 90.15625 C 96.121094 90.15625 93.519531 88.40625 93.519531 86.300781 L 93.519531 49.929688 C 93.519531 49.417969 93.617188 48.925781 93.8125 48.453125 C 94.007812 47.980469 94.289062 47.5625 94.648438 47.199219 C 95.011719 46.835938 95.429688 46.558594 95.902344 46.363281 C 96.375 46.164062 96.867188 46.066406 97.378906 46.066406 L 226.375 46.066406 C 226.886719 46.070312 227.375 46.171875 227.84375 46.367188 C 228.316406 46.566406 228.730469 46.847656 229.089844 47.207031 C 229.449219 47.570312 229.726562 47.988281 229.917969 48.457031 C 230.113281 48.929688 230.210938 49.421875 230.210938 49.929688 L 230.210938 86.300781 C 230.210938 88.433594 229.382812 90.15625 227.25 90.15625 Z M 227.25 90.15625 " fill-opacity="1" fill-rule="nonzero"/><path fill="#db868e" d="M 188.191406 125.179688 C 193.359375 128.675781 196.171875 141.902344 198.714844 147.535156 C 202.207031 155.296875 209.527344 150.585938 211.082031 147.902344 C 212.339844 145.734375 215.535156 136.222656 217.539062 132.574219 C 221.90625 124.566406 228.980469 126.289062 231.746094 129.078125 C 235.667969 133.003906 239.785156 147 243.933594 151.984375 C 250.386719 159.746094 257.574219 151.347656 260.527344 148.292969 C 274.101562 134.304688 281.933594 145.339844 281.933594 145.339844 L 281.933594 162.28125 L 174.171875 162.28125 L 174.171875 120.5625 C 174.171875 120.5625 183.046875 121.671875 188.191406 125.179688 Z M 188.191406 125.179688 " fill-opacity="1" fill-rule="nonzero"/><path fill="#000000" d="M 266.605469 160.402344 C 259.320312 160.402344 254.675781 149.039062 251.898438 142.234375 L 251.898438 142.15625 C 251.433594 141.019531 251.023438 140.042969 250.667969 139.246094 C 246.996094 131.125 245.738281 129.375 242.753906 128.195312 C 241.648438 127.710938 240.496094 127.46875 239.289062 127.46875 C 238.085938 127.46875 236.929688 127.710938 235.828125 128.195312 C 234.5 128.84375 233.332031 129.714844 232.332031 130.800781 C 231.328125 131.886719 230.558594 133.121094 230.019531 134.5 C 229.414062 136.140625 228.875 137.644531 228.394531 138.992188 L 228.28125 139.308594 C 225.574219 146.851562 224.332031 150.296875 221.292969 153.628906 C 218.925781 156.25 216.164062 157.484375 213.320312 157.210938 C 211.832031 157.035156 210.453125 156.554688 209.179688 155.773438 C 207.902344 154.992188 206.847656 153.980469 206.015625 152.734375 C 204.972656 150.949219 204.082031 149.089844 203.34375 147.15625 C 201.433594 142.136719 198.78125 137.539062 195.394531 133.371094 C 189.0625 125.582031 172.25 129.453125 171.535156 129.628906 C 171.445312 129.648438 171.363281 129.632812 171.289062 129.585938 C 171.210938 129.539062 171.164062 129.472656 171.140625 129.382812 C 171.121094 129.296875 171.136719 129.214844 171.183594 129.136719 C 171.230469 129.0625 171.296875 129.011719 171.386719 128.992188 C 172.117188 128.816406 189.316406 124.855469 195.902344 132.953125 C 199.332031 137.183594 202.011719 141.847656 203.945312 146.941406 C 204.667969 148.839844 205.539062 150.667969 206.566406 152.421875 C 207.34375 153.578125 208.324219 154.519531 209.511719 155.25 C 210.695312 155.980469 211.980469 156.429688 213.363281 156.601562 C 215.984375 156.835938 218.601562 155.664062 220.804688 153.214844 C 223.730469 149.992188 224.953125 146.582031 227.632812 139.113281 L 227.746094 138.808594 C 228.238281 137.460938 228.777344 135.949219 229.382812 134.304688 C 229.945312 132.851562 230.753906 131.546875 231.8125 130.394531 C 232.867188 129.242188 234.09375 128.324219 235.496094 127.636719 C 236.679688 127.117188 237.917969 126.855469 239.210938 126.855469 C 240.503906 126.855469 241.742188 127.117188 242.929688 127.636719 C 246.125 128.894531 247.433594 130.703125 251.199219 139 C 251.558594 139.804688 251.96875 140.75 252.429688 141.9375 L 252.429688 142.015625 C 255.148438 148.660156 259.699219 159.773438 266.535156 159.773438 C 267.394531 159.765625 268.230469 159.613281 269.035156 159.308594 C 272.78125 157.929688 273.628906 155.148438 275.347656 144.796875 C 275.628906 143.117188 276.363281 140.847656 278.257812 139.550781 C 279.847656 138.496094 282.003906 138.265625 284.6875 138.878906 C 284.773438 138.898438 284.84375 138.945312 284.890625 139.023438 C 284.941406 139.101562 284.953125 139.183594 284.929688 139.273438 C 284.910156 139.359375 284.859375 139.425781 284.785156 139.472656 C 284.707031 139.523438 284.625 139.535156 284.539062 139.515625 C 282.039062 138.941406 280.046875 139.140625 278.625 140.09375 C 276.921875 141.238281 276.257812 143.335938 276.003906 144.886719 C 274.257812 155.542969 273.339844 158.402344 269.269531 159.90625 C 268.410156 160.226562 267.523438 160.394531 266.605469 160.402344 Z M 266.605469 160.402344 " fill-opacity="1" fill-rule="nonzero"/><path fill="#ffffff" d="M 94.183594 251.84375 L 80.96875 325.902344 L 66.007812 325.902344 L 66.058594 325.367188 C 66.136719 319.0625 72.890625 256.878906 73.046875 255.925781 C 73.210938 254.761719 72.792969 223.394531 72.652344 213.085938 L 72.601562 208.671875 C 72.597656 208.597656 72.597656 208.523438 72.601562 208.453125 L 72.601562 208.363281 C 72.601562 208.085938 72.714844 207.859375 73.0625 207.847656 L 73.542969 207.847656 L 73.542969 208.09375 L 86.785156 217.175781 L 86.785156 217.359375 Z M 94.183594 251.84375 " fill-opacity="1" fill-rule="nonzero"/><path fill="#000000" d="M 80.96875 326.222656 L 66.007812 326.222656 C 65.910156 326.226562 65.828125 326.191406 65.761719 326.121094 C 65.695312 326.046875 65.667969 325.964844 65.675781 325.867188 L 65.726562 325.332031 C 65.8125 318.707031 72.714844 256.265625 72.714844 255.863281 C 72.820312 255.121094 72.714844 240.730469 72.320312 213.09375 L 72.261719 208.671875 L 72.261719 208.375 C 72.253906 208.335938 72.253906 208.296875 72.261719 208.261719 C 72.265625 208.050781 72.34375 207.871094 72.496094 207.726562 C 72.648438 207.582031 72.828125 207.511719 73.039062 207.515625 L 73.507812 207.515625 C 73.601562 207.511719 73.679688 207.542969 73.75 207.605469 C 73.816406 207.667969 73.851562 207.746094 73.847656 207.839844 L 73.847656 207.917969 L 86.949219 216.90625 C 87.027344 216.953125 87.074219 217.019531 87.089844 217.109375 L 87.089844 217.292969 L 94.410156 251.78125 C 94.417969 251.824219 94.417969 251.867188 94.410156 251.910156 L 81.1875 325.960938 C 81.167969 326.09375 81.09375 326.183594 80.96875 326.222656 Z M 66.382812 325.570312 L 80.6875 325.570312 L 93.851562 251.851562 L 86.53125 217.359375 L 73.429688 208.355469 C 73.359375 208.3125 73.316406 208.253906 73.300781 208.171875 L 73.132812 208.171875 C 73.039062 208.171875 73.011719 208.171875 72.992188 208.390625 L 72.992188 208.566406 L 73.054688 213.050781 C 73.289062 230.945312 73.597656 254.867188 73.4375 255.890625 C 73.378906 256.265625 66.519531 318.6875 66.453125 325.289062 Z M 66.382812 325.570312 " fill-opacity="1" fill-rule="nonzero"/><path fill="#ffffff" d="M 127.347656 325.902344 L 111.46875 325.902344 L 92.941406 254.082031 L 73.621094 209.363281 L 98.875 216.355469 L 114.140625 248.433594 C 114.941406 250.121094 115.488281 251.886719 115.792969 253.730469 Z M 127.347656 325.902344 " fill-opacity="1" fill-rule="nonzero"/><path fill="#000000" d="M 127.347656 326.222656 L 111.46875 326.222656 C 111.296875 326.226562 111.191406 326.148438 111.152344 325.980469 L 92.628906 254.148438 L 73.324219 209.492188 C 73.265625 209.363281 73.285156 209.25 73.378906 209.144531 C 73.46875 209.039062 73.578125 209.007812 73.710938 209.046875 L 98.960938 216.042969 C 99.058594 216.066406 99.128906 216.121094 99.171875 216.214844 L 114.4375 248.292969 C 115.25 250.011719 115.8125 251.808594 116.113281 253.6875 L 127.671875 325.855469 C 127.6875 325.957031 127.664062 326.042969 127.601562 326.121094 C 127.53125 326.191406 127.445312 326.226562 127.347656 326.222656 Z M 111.722656 325.570312 L 126.972656 325.570312 L 115.46875 253.78125 C 115.179688 251.957031 114.636719 250.207031 113.84375 248.539062 L 98.644531 216.59375 L 74.191406 209.832031 L 93.230469 253.90625 Z M 111.722656 325.570312 " fill-opacity="1" fill-rule="nonzero"/><path fill="#f7ead0" d="M 152.730469 202.5 L 151.953125 205.121094 L 149.175781 207.402344 L 147.792969 207.628906 L 129.121094 225.613281 C 128.296875 226.421875 127.304688 226.828125 126.152344 226.828125 C 125.589844 226.828125 125.054688 226.722656 124.535156 226.515625 C 124.148438 226.363281 123.792969 226.160156 123.464844 225.90625 C 123.140625 225.652344 122.855469 225.355469 122.613281 225.015625 C 122.375 224.679688 122.1875 224.3125 122.054688 223.921875 C 121.917969 223.53125 121.84375 223.125 121.828125 222.710938 L 121.15625 208.066406 L 131.707031 202.402344 L 131.707031 212.484375 L 143.679688 202.867188 L 146.9375 196.34375 L 150.273438 193.003906 L 150.582031 193.160156 C 150.78125 193.257812 151.375 193.710938 150.824219 195.382812 C 150.507812 196.296875 150.027344 197.113281 149.375 197.832031 L 149 198.703125 C 149.304688 198.699219 149.59375 198.773438 149.863281 198.921875 C 150.132812 199.066406 150.347656 199.273438 150.511719 199.535156 C 150.859375 199.667969 151.148438 199.882812 151.378906 200.175781 C 151.613281 200.46875 151.753906 200.800781 151.804688 201.167969 C 152.289062 201.421875 152.582031 201.820312 152.675781 202.359375 Z M 152.730469 202.5 " fill-opacity="1" fill-rule="nonzero"/><path fill="#f7ead0" d="M 142.710938 167.335938 L 142.554688 167.695312 C 142.34375 168.167969 137.3125 179.390625 131.199219 181.113281 C 130.460938 181.328125 129.714844 181.382812 128.953125 181.28125 C 128.195312 181.179688 127.488281 180.925781 126.832031 180.527344 L 123.976562 185.460938 L 115.039062 179.261719 L 123.476562 167.652344 L 130.875 158.707031 Z M 142.710938 167.335938 " fill-opacity="1" fill-rule="nonzero"/><path fill="#000000" d="M 123.652344 162.476562 C 123.652344 162.476562 117.109375 157.230469 124.351562 151.90625 C 131.59375 146.582031 132.734375 155.59375 132.734375 155.59375 C 132.734375 155.59375 149.242188 160.375 142.03125 170.300781 C 140.882812 170.375 139.753906 170.277344 138.640625 170.003906 L 136.527344 174.242188 L 135.121094 174.191406 C 135.121094 174.191406 135.878906 170.152344 133.75 171.027344 C 131.617188 171.898438 131.382812 173.648438 131.820312 174.679688 C 131.820312 174.679688 127.214844 179.050781 121.546875 172.257812 C 121.546875 172.285156 119.023438 167.808594 123.652344 162.476562 Z M 123.652344 162.476562 " fill-opacity="1" fill-rule="nonzero"/><path fill="#db868e" d="M 130.089844 186.492188 C 131.957031 187.734375 133.023438 191.40625 133.023438 193.652344 L 133.085938 206.941406 L 120.71875 212.988281 L 120.71875 200.136719 C 120.71875 200.136719 106.839844 218.042969 104.507812 223.882812 C 104.507812 223.882812 80.671875 225.492188 70.863281 206.5625 L 82.023438 198.207031 C 79.746094 194.875 76.785156 189.070312 78.339844 187.164062 C 81.144531 183.667969 102.742188 176.996094 102.742188 176.996094 L 115.84375 176.996094 Z M 130.089844 186.492188 " fill-opacity="1" fill-rule="nonzero"/><path fill="#c59a94" d="M 344.289062 321.074219 L 353.363281 321.074219 L 353.363281 330.847656 L 344.289062 330.847656 Z M 365.660156 302.890625 L 359.078125 308.476562 L 363.242188 315.953125 L 371.023438 310.785156 Z M 365.660156 302.890625 " fill-opacity="1" fill-rule="nonzero"/><path fill="#c59a94" d="M 323.40625 184.75 L 313.746094 188.949219 C 313.242188 189.167969 312.714844 189.292969 312.167969 189.320312 C 311.617188 189.34375 311.082031 189.273438 310.558594 189.101562 C 310.035156 188.929688 309.5625 188.671875 309.132812 188.328125 C 308.707031 187.980469 308.351562 187.570312 308.078125 187.09375 L 297.402344 168.832031 C 296.324219 168.710938 295.269531 168.472656 294.242188 168.113281 C 292.050781 167.378906 290.921875 165 290.746094 164.695312 C 290.632812 164.472656 290.5625 164.238281 290.535156 163.988281 C 290.507812 163.742188 290.523438 163.496094 290.585938 163.253906 C 290.648438 163.011719 290.753906 162.789062 290.898438 162.585938 C 291.042969 162.382812 291.222656 162.210938 291.429688 162.074219 C 291.429688 161.664062 291.527344 161.277344 291.714844 160.914062 C 291.902344 160.550781 292.164062 160.25 292.496094 160.007812 C 292.539062 159.578125 292.683594 159.183594 292.925781 158.824219 C 293.171875 158.464844 293.488281 158.1875 293.875 157.988281 C 293.03125 157.378906 292.140625 156.847656 291.203125 156.398438 C 287.988281 154.789062 289.203125 152.132812 289.210938 152.105469 L 289.421875 151.679688 L 295.113281 154.300781 L 299.65625 157.648438 L 311.964844 176.707031 L 318.628906 173.859375 Z M 323.40625 184.75 " fill-opacity="1" fill-rule="nonzero"/><path fill="#ffffff" d="M 361.730469 215.261719 L 356.550781 251.554688 L 355.617188 325.324219 L 338.664062 325.324219 L 339.835938 251.789062 L 343.84375 213.609375 Z M 361.730469 215.261719 " fill-opacity="1" fill-rule="nonzero"/><path fill="#000000" d="M 355.617188 325.65625 L 338.664062 325.65625 C 338.570312 325.660156 338.488281 325.625 338.429688 325.550781 C 338.363281 325.488281 338.332031 325.414062 338.332031 325.324219 L 339.511719 251.789062 L 343.511719 213.574219 C 343.523438 213.488281 343.5625 213.414062 343.632812 213.359375 C 343.703125 213.304688 343.78125 213.28125 343.871094 213.289062 L 361.765625 214.929688 C 361.863281 214.941406 361.9375 214.984375 361.992188 215.0625 C 362.046875 215.132812 362.070312 215.214844 362.0625 215.308594 L 356.859375 251.605469 L 355.984375 325.332031 C 355.980469 325.429688 355.945312 325.511719 355.871094 325.574219 C 355.800781 325.640625 355.714844 325.667969 355.617188 325.65625 Z M 339.023438 325 L 355.320312 325 L 356.253906 251.5625 L 361.390625 215.558594 L 344.15625 213.976562 L 340.191406 251.832031 Z M 339.023438 325 " fill-opacity="1" fill-rule="nonzero"/><path fill="#ffffff" d="M 356.675781 213.496094 L 343.84375 252.261719 L 367.148438 303.640625 L 354.917969 313.066406 L 326.769531 256.054688 C 326.117188 254.746094 325.675781 253.367188 325.445312 251.921875 C 325.210938 250.480469 325.199219 249.03125 325.40625 247.585938 L 330.429688 211.957031 Z M 356.675781 213.496094 " fill-opacity="1" fill-rule="nonzero"/><path fill="#000000" d="M 354.910156 313.398438 L 354.832031 313.398438 C 354.730469 313.375 354.660156 313.316406 354.613281 313.222656 L 326.460938 256.195312 C 325.800781 254.855469 325.351562 253.445312 325.113281 251.96875 C 324.878906 250.492188 324.863281 249.011719 325.074219 247.53125 L 330.097656 211.914062 C 330.105469 211.828125 330.144531 211.757812 330.210938 211.703125 C 330.273438 211.652344 330.351562 211.628906 330.4375 211.636719 L 356.691406 213.164062 C 356.800781 213.175781 356.882812 213.222656 356.945312 213.3125 C 356.992188 213.40625 356.992188 213.5 356.945312 213.59375 L 344.191406 252.246094 L 367.453125 303.511719 C 367.519531 303.667969 367.484375 303.800781 367.347656 303.902344 L 355.121094 313.328125 C 355.058594 313.375 354.988281 313.398438 354.910156 313.398438 Z M 330.699219 212.308594 L 325.71875 247.628906 C 325.308594 250.523438 325.75 253.285156 327.046875 255.90625 L 354.996094 312.566406 L 366.71875 303.535156 L 343.519531 252.402344 C 343.488281 252.320312 343.488281 252.238281 343.519531 252.15625 L 356.21875 213.792969 Z M 330.699219 212.308594 " fill-opacity="1" fill-rule="nonzero"/><path fill="#c59a94" d="M 354.527344 159.152344 L 354.847656 173.359375 L 343.152344 172.484375 L 344.027344 160.910156 C 342.839844 161.015625 340.203125 160.996094 338.417969 159.039062 C 336.339844 156.738281 336.199219 152.605469 338.007812 146.746094 C 339.074219 143.300781 340.820312 141.214844 343.25 140.523438 C 347.800781 139.21875 352.972656 143.53125 353.347656 143.863281 C 353.722656 144.195312 355.984375 146.492188 354.527344 159.152344 Z M 354.527344 159.152344 " fill-opacity="1" fill-rule="nonzero"/><path fill="#db868e" d="M 372.335938 199.082031 C 372.238281 199.65625 371.59375 200.433594 367.511719 201.816406 C 365.863281 202.367188 364.222656 202.832031 363.511719 203.023438 L 363.390625 221.433594 L 362.726562 221.164062 C 362.65625 221.164062 355.738281 218.339844 343.859375 221.941406 C 342.722656 222.289062 341.558594 222.464844 340.367188 222.46875 C 333.824219 222.46875 328.699219 217.273438 328.453125 217.011719 L 328.296875 216.855469 L 330.65625 190.039062 L 330.128906 184.472656 L 320.75 188.074219 L 314.933594 173.761719 L 334.578125 165.394531 C 336.058594 164.765625 337.597656 164.542969 339.195312 164.722656 L 353.730469 166.402344 C 355.6875 166.621094 357.382812 167.40625 358.8125 168.761719 C 371 180.433594 372.578125 197.8125 372.335938 199.082031 Z M 372.335938 199.082031 " fill-opacity="1" fill-rule="nonzero"/><g clip-path="url(#id2)"><path fill="#000000" d="M 355.109375 333.761719 C 355.152344 333.917969 355.15625 334.078125 355.125 334.238281 C 355.09375 334.398438 355.027344 334.542969 354.925781 334.675781 C 354.828125 334.804688 354.703125 334.902344 354.554688 334.976562 C 354.40625 335.046875 354.253906 335.082031 354.089844 335.082031 L 332.121094 335.082031 C 331.984375 335.082031 331.863281 335.042969 331.753906 334.957031 C 331.644531 334.875 331.574219 334.765625 331.542969 334.632812 C 331.511719 334.5 331.523438 334.371094 331.582031 334.246094 C 331.640625 334.125 331.730469 334.03125 331.851562 333.96875 L 344.28125 327.519531 C 348.472656 331.304688 353.460938 327.519531 353.460938 327.519531 Z M 369.523438 308.460938 C 369.523438 308.460938 367.304688 314.316406 361.738281 313.328125 L 354.648438 325.429688 C 354.574219 325.546875 354.546875 325.671875 354.566406 325.808594 C 354.582031 325.945312 354.640625 326.0625 354.738281 326.15625 C 354.839844 326.25 354.957031 326.304688 355.09375 326.320312 C 355.230469 326.332031 355.355469 326.300781 355.46875 326.222656 L 374.082031 314.5625 C 374.21875 314.476562 374.332031 314.363281 374.417969 314.222656 C 374.503906 314.082031 374.554688 313.933594 374.570312 313.769531 C 374.585938 313.605469 374.566406 313.449219 374.507812 313.296875 C 374.449219 313.144531 374.359375 313.011719 374.238281 312.902344 Z M 369.523438 308.460938 " fill-opacity="1" fill-rule="nonzero"/></g><path fill="#000000" d="M 343.957031 147.027344 L 344.191406 151.277344 L 345.84375 151.277344 C 345.84375 151.277344 346.988281 147.097656 349.84375 149.859375 C 350.34375 150.339844 350.789062 151.746094 350.316406 153.628906 C 350.65625 154.351562 351.148438 154.949219 351.792969 155.425781 C 352.433594 155.898438 353.148438 156.195312 353.941406 156.3125 C 354.402344 156.175781 354.839844 155.988281 355.257812 155.753906 C 358.019531 153.46875 361.179688 144.621094 356.910156 141.132812 C 356.910156 141.132812 348.664062 131.238281 339.292969 136.945312 C 336.917969 138.398438 335.722656 143.496094 343.957031 147.027344 Z M 343.957031 147.027344 " fill-opacity="1" fill-rule="nonzero"/><path fill="#ffffff" d="M 34.738281 187.46875 L 38.519531 223.570312 L 39.628906 293.082031 L 23.609375 293.082031 L 22.738281 223.339844 L 17.835938 189.027344 Z M 34.738281 187.46875 " fill-opacity="1" fill-rule="nonzero"/><path fill="#000000" d="M 39.628906 293.421875 L 23.609375 293.421875 C 23.519531 293.425781 23.441406 293.394531 23.375 293.332031 C 23.3125 293.265625 23.277344 293.1875 23.277344 293.097656 L 22.40625 223.367188 L 17.511719 189.097656 C 17.496094 189 17.519531 188.914062 17.582031 188.84375 C 17.640625 188.769531 17.714844 188.726562 17.808594 188.71875 L 34.71875 187.164062 C 34.808594 187.152344 34.890625 187.171875 34.960938 187.230469 C 35.03125 187.289062 35.070312 187.363281 35.078125 187.453125 L 38.859375 223.550781 L 39.976562 293.089844 C 39.976562 293.179688 39.945312 293.261719 39.882812 293.324219 C 39.8125 293.398438 39.726562 293.429688 39.628906 293.421875 Z M 23.90625 292.765625 L 39.296875 292.765625 L 38.195312 223.570312 L 34.441406 187.828125 L 18.195312 189.324219 L 23.042969 223.296875 Z M 23.90625 292.765625 " fill-opacity="1" fill-rule="nonzero"/><path fill="#ffffff" d="M 47.417969 185.886719 L 52.171875 219.554688 C 52.566406 222.355469 52.136719 225.027344 50.886719 227.5625 L 24.273438 281.496094 L 12.726562 272.578125 L 34.738281 224.003906 L 22.605469 187.355469 Z M 47.417969 185.886719 " fill-opacity="1" fill-rule="nonzero"/><path fill="#000000" d="M 24.273438 281.820312 C 24.199219 281.820312 24.132812 281.796875 24.074219 281.75 L 12.5 272.839844 C 12.363281 272.738281 12.332031 272.605469 12.402344 272.449219 L 34.386719 223.988281 L 22.335938 187.460938 C 22.304688 187.359375 22.320312 187.261719 22.378906 187.175781 C 22.441406 187.085938 22.523438 187.039062 22.632812 187.03125 L 47.445312 185.582031 C 47.53125 185.578125 47.609375 185.601562 47.675781 185.652344 C 47.742188 185.707031 47.78125 185.777344 47.796875 185.863281 L 52.539062 219.539062 C 52.949219 222.40625 52.511719 225.140625 51.226562 227.738281 L 24.570312 281.636719 C 24.527344 281.730469 24.453125 281.789062 24.351562 281.8125 Z M 13.101562 272.441406 L 24.160156 280.953125 L 50.589844 227.414062 C 51.816406 224.9375 52.238281 222.328125 51.847656 219.589844 L 47.140625 186.253906 L 23.050781 187.636719 L 35.042969 223.882812 C 35.074219 223.960938 35.074219 224.039062 35.042969 224.121094 Z M 13.101562 272.441406 " fill-opacity="1" fill-rule="nonzero"/><path fill="#ffffff" d="M 73.402344 128.683594 L 73.140625 136.308594 L 56.660156 149.039062 L 49.359375 140.480469 Z M 73.402344 128.683594 " fill-opacity="1" fill-rule="nonzero"/><path fill="#000000" d="M 56.660156 149.359375 C 56.558594 149.363281 56.472656 149.328125 56.40625 149.246094 L 49.113281 140.6875 C 49.039062 140.609375 49.019531 140.515625 49.042969 140.410156 C 49.066406 140.304688 49.125 140.230469 49.21875 140.179688 L 73.253906 128.386719 C 73.363281 128.328125 73.472656 128.328125 73.578125 128.386719 C 73.679688 128.453125 73.730469 128.546875 73.726562 128.667969 L 73.464844 136.292969 C 73.464844 136.398438 73.421875 136.480469 73.335938 136.542969 L 56.851562 149.300781 C 56.796875 149.34375 56.730469 149.363281 56.660156 149.359375 Z M 49.882812 140.617188 L 56.703125 148.617188 L 72.820312 136.140625 L 73.054688 129.21875 Z M 49.882812 140.617188 " fill-opacity="1" fill-rule="nonzero"/><path fill="#000000" d="M 92.070312 119.835938 L 87.03125 150.4375 C 86.996094 150.65625 86.925781 150.863281 86.816406 151.058594 C 86.707031 151.25 86.570312 151.421875 86.402344 151.566406 C 86.234375 151.710938 86.046875 151.820312 85.839844 151.898438 C 85.632812 151.976562 85.417969 152.015625 85.195312 152.019531 L 66.582031 152.019531 C 66.304688 152.015625 66.042969 151.957031 65.792969 151.839844 C 65.542969 151.71875 65.332031 151.554688 65.152344 151.34375 C 64.976562 151.132812 64.851562 150.890625 64.777344 150.625 C 64.707031 150.359375 64.695312 150.089844 64.738281 149.816406 L 69.78125 119.214844 C 69.8125 118.996094 69.882812 118.789062 69.992188 118.59375 C 70.097656 118.402344 70.234375 118.230469 70.402344 118.085938 C 70.570312 117.941406 70.761719 117.828125 70.96875 117.75 C 71.175781 117.675781 71.390625 117.636719 71.613281 117.632812 L 90.226562 117.632812 C 90.503906 117.636719 90.765625 117.695312 91.015625 117.816406 C 91.265625 117.933594 91.476562 118.097656 91.65625 118.308594 C 91.832031 118.523438 91.957031 118.761719 92.03125 119.027344 C 92.101562 119.296875 92.117188 119.566406 92.070312 119.835938 Z M 92.070312 119.835938 " fill-opacity="1" fill-rule="nonzero"/><path fill="#ffffff" d="M 59.445312 131.683594 C 58.957031 132.082031 58.402344 132.34375 57.785156 132.457031 C 57.164062 132.574219 56.554688 132.535156 55.953125 132.339844 L 53.925781 140.007812 L 43.445312 139.011719 L 48.171875 111.839844 L 61.035156 113.535156 L 61.097656 113.875 C 61.167969 114.453125 63.527344 128.1875 59.445312 131.683594 Z M 59.445312 131.683594 " fill-opacity="1" fill-rule="nonzero"/><path fill="#000000" d="M 53.890625 140.332031 L 43.410156 139.332031 C 43.3125 139.320312 43.234375 139.277344 43.175781 139.203125 C 43.117188 139.125 43.097656 139.042969 43.113281 138.949219 L 47.839844 111.769531 C 47.851562 111.679688 47.894531 111.609375 47.964844 111.558594 C 48.039062 111.503906 48.117188 111.484375 48.207031 111.496094 L 61.070312 113.246094 C 61.234375 113.265625 61.324219 113.355469 61.351562 113.515625 L 61.410156 113.859375 C 61.515625 114.441406 63.902344 128.351562 59.664062 131.964844 C 59.179688 132.371094 58.632812 132.644531 58.015625 132.789062 C 57.398438 132.929688 56.785156 132.921875 56.171875 132.769531 L 54.222656 140.128906 C 54.164062 140.28125 54.054688 140.351562 53.890625 140.332031 Z M 43.792969 138.679688 L 53.648438 139.613281 L 55.605469 132.21875 C 55.625 132.128906 55.675781 132.0625 55.75 132.015625 C 55.828125 131.972656 55.910156 131.957031 55.996094 131.980469 C 56.550781 132.164062 57.113281 132.203125 57.6875 132.097656 C 58.261719 131.992188 58.777344 131.753906 59.226562 131.386719 C 62.382812 128.683594 61.59375 118.761719 60.738281 113.902344 L 60.738281 113.796875 L 48.40625 112.1875 Z M 43.792969 138.679688 " fill-opacity="1" fill-rule="nonzero"/><path fill="#ffffff" d="M 89.761719 120.582031 L 84.898438 149.808594 C 84.855469 150.074219 84.765625 150.324219 84.632812 150.558594 C 84.5 150.792969 84.332031 151 84.125 151.171875 C 83.921875 151.347656 83.691406 151.480469 83.4375 151.574219 C 83.183594 151.667969 82.921875 151.714844 82.652344 151.714844 L 64.660156 151.714844 C 63.953125 151.714844 63.371094 151.445312 62.914062 150.910156 C 62.464844 150.367188 62.296875 149.75 62.40625 149.054688 L 67.273438 119.828125 C 67.316406 119.5625 67.40625 119.316406 67.535156 119.082031 C 67.667969 118.847656 67.835938 118.644531 68.039062 118.46875 C 68.242188 118.296875 68.472656 118.160156 68.722656 118.066406 C 68.972656 117.972656 69.230469 117.925781 69.5 117.921875 L 87.492188 117.921875 C 87.824219 117.921875 88.140625 117.992188 88.441406 118.128906 C 88.742188 118.269531 89.003906 118.464844 89.21875 118.71875 C 89.433594 118.96875 89.585938 119.253906 89.675781 119.574219 C 89.769531 119.894531 89.789062 120.21875 89.738281 120.546875 Z M 89.761719 120.582031 " fill-opacity="1" fill-rule="nonzero"/><path fill="#000000" d="M 82.652344 152.035156 L 64.660156 152.035156 C 64.472656 152.035156 64.285156 152.011719 64.101562 151.972656 C 63.917969 151.929688 63.742188 151.871094 63.570312 151.789062 C 63.398438 151.710938 63.238281 151.613281 63.089844 151.496094 C 62.941406 151.382812 62.804688 151.253906 62.683594 151.109375 C 62.558594 150.964844 62.453125 150.808594 62.367188 150.644531 C 62.277344 150.476562 62.207031 150.300781 62.15625 150.121094 C 62.105469 149.9375 62.074219 149.753906 62.066406 149.566406 C 62.054688 149.375 62.0625 149.1875 62.09375 149.003906 L 66.957031 119.777344 C 67.011719 119.476562 67.113281 119.191406 67.261719 118.925781 C 67.414062 118.660156 67.605469 118.429688 67.835938 118.230469 C 68.070312 118.03125 68.328125 117.875 68.613281 117.769531 C 68.898438 117.660156 69.195312 117.605469 69.5 117.597656 L 87.492188 117.597656 C 88.285156 117.589844 88.945312 117.882812 89.476562 118.472656 C 89.996094 119.089844 90.191406 119.792969 90.058594 120.589844 L 85.222656 149.859375 C 85.167969 150.164062 85.066406 150.449219 84.914062 150.714844 C 84.761719 150.984375 84.566406 151.214844 84.332031 151.414062 C 84.097656 151.613281 83.835938 151.765625 83.546875 151.875 C 83.257812 151.980469 82.960938 152.035156 82.652344 152.035156 Z M 69.5 118.253906 C 69.269531 118.253906 69.046875 118.292969 68.828125 118.371094 C 68.613281 118.449219 68.414062 118.566406 68.238281 118.714844 C 68.0625 118.863281 67.917969 119.039062 67.804688 119.238281 C 67.691406 119.4375 67.617188 119.652344 67.578125 119.882812 L 62.714844 149.109375 C 62.667969 149.390625 62.683594 149.667969 62.757812 149.945312 C 62.835938 150.222656 62.964844 150.46875 63.152344 150.6875 C 63.335938 150.90625 63.558594 151.074219 63.816406 151.195312 C 64.074219 151.316406 64.347656 151.378906 64.636719 151.378906 L 82.628906 151.378906 C 82.859375 151.382812 83.082031 151.34375 83.296875 151.265625 C 83.515625 151.183594 83.710938 151.070312 83.886719 150.921875 C 84.0625 150.773438 84.207031 150.597656 84.324219 150.398438 C 84.4375 150.195312 84.511719 149.980469 84.550781 149.753906 L 89.414062 120.519531 C 89.460938 120.238281 89.449219 119.957031 89.371094 119.679688 C 89.296875 119.40625 89.164062 119.15625 88.980469 118.9375 C 88.792969 118.722656 88.570312 118.550781 88.3125 118.433594 C 88.050781 118.3125 87.777344 118.253906 87.492188 118.253906 Z M 69.5 118.253906 " fill-opacity="1" fill-rule="nonzero"/><path fill="#ffffff" d="M 91.5 135.863281 C 91.550781 136.277344 91.503906 136.679688 91.359375 137.070312 C 91.21875 137.464844 91 137.804688 90.699219 138.09375 C 90.453125 138.496094 89.519531 139.492188 86.128906 140.285156 L 83.195312 141.160156 L 80.855469 149.117188 L 74.25 146.738281 L 74.398438 146.292969 C 74.503906 145.996094 77.019531 138.863281 79.972656 135.636719 C 82.167969 133.410156 84.640625 131.554688 87.386719 130.066406 L 88.078125 129.699219 L 88.078125 130.484375 C 88.023438 131.625 87.628906 132.628906 86.898438 133.503906 C 87.375 133.445312 87.789062 133.253906 88.140625 132.925781 L 91.054688 127.890625 L 91.449219 128.675781 C 91.957031 129.679688 92.074219 130.726562 91.796875 131.816406 C 91.960938 132.101562 92.039062 132.410156 92.039062 132.742188 C 92.039062 133.070312 91.960938 133.378906 91.796875 133.667969 C 91.953125 134.035156 92.003906 134.414062 91.949219 134.804688 C 91.894531 135.199219 91.746094 135.550781 91.5 135.863281 Z M 91.5 135.863281 " fill-opacity="1" fill-rule="nonzero"/><path fill="#000000" d="M 80.855469 149.441406 C 80.816406 149.449219 80.777344 149.449219 80.742188 149.441406 L 74.136719 147.0625 C 74.054688 147.03125 73.996094 146.976562 73.957031 146.898438 C 73.917969 146.816406 73.910156 146.734375 73.9375 146.652344 L 74.085938 146.207031 C 74.355469 145.4375 76.757812 138.632812 79.726562 135.433594 C 81.949219 133.183594 84.453125 131.304688 87.230469 129.796875 L 87.929688 129.429688 C 88.035156 129.367188 88.144531 129.367188 88.253906 129.429688 C 88.355469 129.492188 88.410156 129.585938 88.410156 129.707031 L 88.410156 130.496094 C 88.371094 131.328125 88.152344 132.109375 87.746094 132.835938 L 87.886719 132.734375 L 90.769531 127.730469 C 90.835938 127.621094 90.933594 127.566406 91.066406 127.574219 C 91.195312 127.574219 91.285156 127.632812 91.34375 127.75 L 91.738281 128.535156 C 92.269531 129.574219 92.410156 130.660156 92.15625 131.796875 C 92.449219 132.425781 92.449219 133.054688 92.15625 133.6875 C 92.289062 134.070312 92.332031 134.460938 92.277344 134.863281 C 92.222656 135.265625 92.082031 135.632812 91.851562 135.96875 C 91.929688 136.890625 91.636719 137.671875 90.976562 138.320312 C 90.609375 138.863281 89.519531 139.839844 86.234375 140.617188 L 83.484375 141.40625 L 81.160156 149.167969 C 81.132812 149.261719 81.078125 149.328125 80.996094 149.371094 C 80.953125 149.40625 80.90625 149.429688 80.855469 149.441406 Z M 74.652344 146.546875 L 80.628906 148.695312 L 82.878906 141.046875 C 82.914062 140.933594 82.984375 140.855469 83.097656 140.820312 L 86.042969 139.945312 C 89.414062 139.148438 90.242188 138.195312 90.410156 137.890625 L 90.460938 137.804688 C 91.011719 137.265625 91.242188 136.617188 91.152344 135.855469 C 91.144531 135.777344 91.164062 135.707031 91.203125 135.644531 C 91.414062 135.378906 91.539062 135.078125 91.585938 134.742188 C 91.632812 134.410156 91.589844 134.085938 91.457031 133.773438 C 91.417969 133.679688 91.417969 133.585938 91.457031 133.492188 C 91.746094 132.976562 91.746094 132.457031 91.457031 131.9375 C 91.417969 131.839844 91.417969 131.746094 91.457031 131.648438 C 91.691406 130.652344 91.578125 129.703125 91.117188 128.789062 L 90.996094 128.546875 L 88.375 133.054688 L 88.3125 133.136719 C 87.910156 133.511719 87.429688 133.730469 86.882812 133.789062 C 86.734375 133.8125 86.625 133.757812 86.558594 133.625 C 86.46875 133.503906 86.46875 133.378906 86.558594 133.257812 C 87.242188 132.445312 87.613281 131.511719 87.667969 130.449219 L 87.667969 130.207031 L 87.449219 130.320312 C 84.738281 131.796875 82.296875 133.632812 80.121094 135.828125 C 77.195312 138.984375 74.722656 146.066406 74.617188 146.320312 Z M 74.652344 146.546875 " fill-opacity="1" fill-rule="nonzero"/><path fill="#db868e" d="M 72.410156 128.980469 L 71.402344 130.03125 L 72.328125 131.683594 L 73.789062 131.378906 C 74.519531 132.121094 75.394531 132.617188 76.410156 132.863281 L 76.820312 134.316406 L 78.695312 134.316406 L 79.109375 132.820312 C 80.082031 132.5625 80.921875 132.074219 81.621094 131.351562 L 83.082031 131.65625 L 84.015625 130.03125 L 83.003906 128.980469 C 83.144531 128.492188 83.214844 127.988281 83.210938 127.476562 C 83.210938 126.988281 83.148438 126.507812 83.019531 126.035156 L 84.058594 124.855469 L 83.109375 123.246094 L 81.640625 123.621094 C 80.933594 122.894531 80.089844 122.398438 79.109375 122.136719 L 78.6875 120.695312 L 76.820312 120.695312 L 76.355469 122.128906 C 75.359375 122.382812 74.503906 122.878906 73.789062 123.613281 L 72.347656 123.246094 L 71.394531 124.855469 L 72.410156 126.007812 C 72.273438 126.488281 72.207031 126.980469 72.207031 127.476562 C 72.207031 127.988281 72.273438 128.488281 72.410156 128.980469 Z M 74.671875 127.460938 C 74.671875 127.054688 74.75 126.660156 74.90625 126.285156 C 75.0625 125.90625 75.28125 125.574219 75.570312 125.285156 C 75.859375 124.996094 76.191406 124.773438 76.570312 124.617188 C 76.945312 124.460938 77.335938 124.382812 77.746094 124.382812 C 78.152344 124.382812 78.542969 124.460938 78.921875 124.617188 C 79.296875 124.773438 79.628906 124.996094 79.917969 125.285156 C 80.207031 125.574219 80.429688 125.90625 80.585938 126.285156 C 80.742188 126.660156 80.820312 127.054688 80.820312 127.460938 C 80.820312 127.867188 80.742188 128.261719 80.585938 128.640625 C 80.429688 129.015625 80.207031 129.347656 79.917969 129.636719 C 79.628906 129.925781 79.296875 130.148438 78.921875 130.304688 C 78.542969 130.460938 78.152344 130.539062 77.746094 130.539062 C 77.335938 130.539062 76.945312 130.460938 76.566406 130.304688 C 76.191406 130.152344 75.855469 129.929688 75.570312 129.640625 C 75.28125 129.351562 75.058594 129.019531 74.902344 128.640625 C 74.746094 128.261719 74.667969 127.871094 74.671875 127.460938 Z M 67.753906 137.515625 L 67.132812 138.152344 L 67.699219 139.140625 L 68.574219 138.957031 C 69.011719 139.394531 69.535156 139.6875 70.136719 139.832031 L 70.382812 140.707031 L 71.515625 140.707031 L 71.8125 139.832031 C 72.398438 139.679688 72.90625 139.386719 73.335938 138.957031 L 74.207031 139.140625 L 74.742188 138.152344 L 74.128906 137.515625 C 74.214844 137.230469 74.257812 136.9375 74.261719 136.640625 C 74.261719 136.34375 74.21875 136.050781 74.136719 135.765625 L 74.765625 135.050781 L 74.191406 134.070312 L 73.316406 134.296875 C 72.882812 133.863281 72.367188 133.574219 71.769531 133.421875 L 71.515625 132.550781 L 70.375 132.550781 L 70.085938 133.421875 C 69.492188 133.574219 68.976562 133.867188 68.539062 134.296875 L 67.664062 134.070312 L 67.089844 135.050781 L 67.699219 135.75 C 67.621094 136.035156 67.578125 136.328125 67.578125 136.625 C 67.59375 136.929688 67.652344 137.226562 67.753906 137.515625 Z M 69.117188 136.640625 C 69.117188 136.394531 69.164062 136.15625 69.257812 135.929688 C 69.351562 135.699219 69.484375 135.5 69.660156 135.324219 C 69.835938 135.148438 70.035156 135.015625 70.265625 134.921875 C 70.492188 134.824219 70.730469 134.777344 70.976562 134.777344 C 71.222656 134.777344 71.460938 134.824219 71.6875 134.921875 C 71.914062 135.015625 72.117188 135.148438 72.292969 135.324219 C 72.464844 135.5 72.601562 135.699219 72.695312 135.929688 C 72.789062 136.15625 72.835938 136.394531 72.835938 136.640625 C 72.835938 136.886719 72.789062 137.125 72.695312 137.351562 C 72.601562 137.582031 72.464844 137.78125 72.292969 137.957031 C 72.117188 138.132812 71.914062 138.265625 71.6875 138.359375 C 71.460938 138.457031 71.222656 138.503906 70.976562 138.503906 C 70.722656 138.503906 70.480469 138.457031 70.25 138.363281 C 70.015625 138.265625 69.8125 138.128906 69.636719 137.949219 C 69.460938 137.769531 69.324219 137.5625 69.234375 137.328125 C 69.140625 137.09375 69.101562 136.847656 69.105469 136.597656 Z M 69.117188 136.640625 " fill-opacity="1" fill-rule="nonzero"/><g clip-path="url(#id3)"><path fill="#000000" d="M 220.523438 84.632812 L 91.527344 84.632812 C 91.253906 84.628906 90.980469 84.601562 90.710938 84.550781 C 90.441406 84.496094 90.179688 84.414062 89.929688 84.308594 C 89.675781 84.203125 89.433594 84.074219 89.207031 83.921875 C 88.976562 83.769531 88.765625 83.597656 88.570312 83.402344 C 88.378906 83.207031 88.203125 82.996094 88.050781 82.769531 C 87.898438 82.539062 87.769531 82.296875 87.664062 82.042969 C 87.558594 81.789062 87.480469 81.527344 87.425781 81.257812 C 87.371094 80.992188 87.34375 80.71875 87.34375 80.441406 L 87.34375 44.074219 C 87.34375 43.800781 87.371094 43.527344 87.425781 43.257812 C 87.480469 42.988281 87.558594 42.726562 87.664062 42.472656 C 87.769531 42.21875 87.898438 41.976562 88.050781 41.75 C 88.203125 41.519531 88.378906 41.308594 88.570312 41.117188 C 88.765625 40.921875 88.976562 40.746094 89.207031 40.59375 C 89.433594 40.441406 89.675781 40.3125 89.929688 40.207031 C 90.179688 40.101562 90.441406 40.023438 90.710938 39.96875 C 90.980469 39.914062 91.253906 39.886719 91.527344 39.886719 L 220.523438 39.886719 C 220.800781 39.886719 221.070312 39.914062 221.339844 39.964844 C 221.609375 40.019531 221.871094 40.101562 222.125 40.203125 C 222.378906 40.308594 222.621094 40.4375 222.851562 40.589844 C 223.078125 40.746094 223.292969 40.917969 223.484375 41.113281 C 223.679688 41.308594 223.855469 41.519531 224.007812 41.746094 C 224.160156 41.976562 224.289062 42.214844 224.394531 42.472656 C 224.5 42.726562 224.582031 42.988281 224.632812 43.257812 C 224.6875 43.527344 224.714844 43.800781 224.714844 44.074219 L 224.714844 80.441406 C 224.714844 80.71875 224.6875 80.992188 224.632812 81.261719 C 224.582031 81.53125 224.5 81.792969 224.394531 82.046875 C 224.289062 82.300781 224.160156 82.542969 224.007812 82.769531 C 223.855469 83 223.679688 83.210938 223.484375 83.40625 C 223.292969 83.597656 223.078125 83.773438 222.851562 83.925781 C 222.621094 84.078125 222.378906 84.207031 222.125 84.3125 C 221.871094 84.417969 221.609375 84.496094 221.339844 84.550781 C 221.070312 84.605469 220.800781 84.632812 220.523438 84.632812 Z M 91.527344 40.542969 C 91.0625 40.542969 90.617188 40.628906 90.191406 40.808594 C 89.761719 40.984375 89.386719 41.238281 89.058594 41.566406 C 88.730469 41.894531 88.476562 42.273438 88.300781 42.699219 C 88.121094 43.128906 88.035156 43.574219 88.035156 44.039062 L 88.035156 80.410156 C 88.035156 80.871094 88.121094 81.316406 88.300781 81.746094 C 88.476562 82.175781 88.730469 82.554688 89.058594 82.882812 C 89.386719 83.210938 89.761719 83.460938 90.191406 83.640625 C 90.617188 83.816406 91.0625 83.90625 91.527344 83.90625 L 220.523438 83.90625 C 220.988281 83.90625 221.4375 83.816406 221.867188 83.640625 C 222.296875 83.464844 222.679688 83.210938 223.011719 82.882812 C 223.339844 82.554688 223.597656 82.179688 223.78125 81.75 C 223.960938 81.320312 224.054688 80.875 224.0625 80.410156 L 224.0625 44.074219 C 224.054688 43.609375 223.960938 43.160156 223.78125 42.734375 C 223.597656 42.304688 223.339844 41.925781 223.011719 41.597656 C 222.679688 41.269531 222.296875 41.019531 221.867188 40.84375 C 221.4375 40.664062 220.988281 40.578125 220.523438 40.578125 Z M 91.527344 40.542969 " fill-opacity="1" fill-rule="nonzero"/></g><path fill="#000000" d="M 285.890625 167.527344 L 170.597656 167.527344 C 170.175781 167.527344 169.765625 167.445312 169.375 167.285156 C 168.980469 167.121094 168.636719 166.890625 168.335938 166.589844 C 168.035156 166.292969 167.804688 165.945312 167.640625 165.554688 C 167.476562 165.160156 167.394531 164.753906 167.394531 164.328125 L 167.394531 117.992188 C 167.394531 117.566406 167.476562 117.160156 167.640625 116.769531 C 167.804688 116.375 168.035156 116.03125 168.335938 115.730469 C 168.636719 115.429688 168.980469 115.199219 169.375 115.035156 C 169.765625 114.875 170.175781 114.792969 170.597656 114.792969 L 285.890625 114.792969 C 286.316406 114.792969 286.722656 114.875 287.117188 115.035156 C 287.507812 115.199219 287.855469 115.429688 288.15625 115.730469 C 288.457031 116.03125 288.6875 116.375 288.851562 116.769531 C 289.015625 117.160156 289.097656 117.566406 289.097656 117.992188 L 289.097656 164.328125 C 289.097656 164.753906 289.015625 165.160156 288.851562 165.554688 C 288.6875 165.945312 288.457031 166.292969 288.15625 166.589844 C 287.855469 166.890625 287.507812 167.121094 287.117188 167.285156 C 286.722656 167.445312 286.316406 167.527344 285.890625 167.527344 Z M 170.597656 115.421875 C 170.261719 115.421875 169.9375 115.488281 169.625 115.617188 C 169.3125 115.746094 169.039062 115.929688 168.800781 116.167969 C 168.558594 116.40625 168.375 116.679688 168.246094 116.992188 C 168.117188 117.304688 168.050781 117.628906 168.046875 117.964844 L 168.046875 164.300781 C 168.050781 164.640625 168.117188 164.964844 168.246094 165.277344 C 168.375 165.589844 168.558594 165.863281 168.800781 166.101562 C 169.039062 166.339844 169.3125 166.523438 169.625 166.652344 C 169.9375 166.78125 170.261719 166.847656 170.597656 166.847656 L 285.890625 166.847656 C 286.230469 166.847656 286.554688 166.78125 286.867188 166.652344 C 287.175781 166.523438 287.453125 166.339844 287.691406 166.101562 C 287.929688 165.863281 288.117188 165.589844 288.246094 165.277344 C 288.375 164.964844 288.441406 164.640625 288.441406 164.300781 L 288.441406 117.964844 C 288.441406 117.628906 288.375 117.304688 288.246094 116.992188 C 288.117188 116.679688 287.929688 116.40625 287.691406 116.167969 C 287.453125 115.929688 287.175781 115.746094 286.867188 115.617188 C 286.554688 115.488281 286.230469 115.421875 285.890625 115.421875 Z M 170.597656 115.421875 " fill-opacity="1" fill-rule="nonzero"/><path fill="#db868e" d="M 250.753906 199.667969 L 258.726562 185.886719 C 259.992188 186.617188 261.136719 187.507812 262.15625 188.550781 C 263.175781 189.597656 264.035156 190.761719 264.738281 192.042969 C 265.4375 193.324219 265.953125 194.675781 266.28125 196.101562 C 266.613281 197.523438 266.742188 198.96875 266.675781 200.425781 Z M 277.132812 213.105469 C 278.359375 213.890625 279.675781 214.496094 281.070312 214.921875 C 282.46875 215.351562 283.894531 215.578125 285.355469 215.613281 C 286.8125 215.644531 288.25 215.480469 289.664062 215.117188 C 291.078125 214.757812 292.417969 214.210938 293.683594 213.480469 L 285.71875 199.667969 Z M 277.132812 213.105469 " fill-opacity="1" fill-rule="nonzero"/><path fill="#000000" d="M 250.753906 212.867188 C 249.90625 212.867188 249.0625 212.785156 248.230469 212.621094 C 247.398438 212.453125 246.589844 212.210938 245.804688 211.882812 C 245.019531 211.558594 244.273438 211.160156 243.566406 210.6875 C 242.859375 210.21875 242.207031 209.679688 241.605469 209.078125 C 241.007812 208.480469 240.46875 207.824219 240 207.117188 C 239.527344 206.414062 239.128906 205.667969 238.804688 204.882812 C 238.476562 204.097656 238.234375 203.285156 238.066406 202.453125 C 237.902344 201.621094 237.816406 200.777344 237.816406 199.929688 C 237.816406 199.078125 237.898438 198.238281 238.066406 197.40625 C 238.230469 196.570312 238.476562 195.761719 238.800781 194.976562 C 239.125 194.191406 239.523438 193.445312 239.996094 192.742188 C 240.464844 192.035156 241.003906 191.378906 241.601562 190.78125 C 242.203125 190.179688 242.855469 189.640625 243.5625 189.171875 C 244.265625 188.699219 245.011719 188.300781 245.796875 187.972656 C 246.582031 187.648438 247.390625 187.402344 248.222656 187.238281 C 249.054688 187.074219 249.894531 186.988281 250.746094 186.988281 C 251.59375 186.988281 252.433594 187.074219 253.269531 187.238281 C 254.101562 187.40625 254.910156 187.652344 255.695312 187.976562 C 256.476562 188.300781 257.222656 188.699219 257.929688 189.171875 C 258.636719 189.644531 259.289062 190.183594 259.890625 190.785156 C 260.488281 191.382812 261.023438 192.039062 261.496094 192.746094 C 261.96875 193.453125 262.367188 194.199219 262.691406 194.984375 C 263.015625 195.769531 263.257812 196.578125 263.425781 197.410156 C 263.589844 198.246094 263.671875 199.085938 263.671875 199.9375 C 263.671875 200.785156 263.585938 201.625 263.421875 202.457031 C 263.253906 203.289062 263.007812 204.097656 262.683594 204.882812 C 262.359375 205.667969 261.960938 206.410156 261.488281 207.117188 C 261.019531 207.824219 260.484375 208.476562 259.882812 209.074219 C 259.285156 209.675781 258.632812 210.210938 257.925781 210.683594 C 257.222656 211.15625 256.476562 211.554688 255.695312 211.878906 C 254.910156 212.203125 254.105469 212.449219 253.273438 212.617188 C 252.441406 212.78125 251.601562 212.867188 250.753906 212.867188 Z M 250.753906 187.515625 C 249.9375 187.511719 249.132812 187.59375 248.332031 187.75 C 247.535156 187.910156 246.757812 188.144531 246.007812 188.457031 C 245.253906 188.765625 244.539062 189.148438 243.859375 189.601562 C 243.183594 190.054688 242.554688 190.570312 241.980469 191.144531 C 241.402344 191.722656 240.890625 192.347656 240.4375 193.027344 C 239.984375 193.703125 239.601562 194.417969 239.289062 195.171875 C 238.976562 195.925781 238.742188 196.699219 238.582031 197.5 C 238.421875 198.300781 238.34375 199.105469 238.34375 199.921875 C 238.34375 200.738281 238.421875 201.546875 238.578125 202.34375 C 238.738281 203.144531 238.972656 203.921875 239.285156 204.675781 C 239.597656 205.429688 239.980469 206.144531 240.429688 206.824219 C 240.882812 207.5 241.398438 208.128906 241.972656 208.703125 C 242.550781 209.28125 243.175781 209.796875 243.851562 210.25 C 244.53125 210.703125 245.246094 211.085938 245.996094 211.398438 C 246.75 211.710938 247.527344 211.945312 248.324219 212.105469 C 249.125 212.261719 249.929688 212.34375 250.746094 212.34375 C 251.558594 212.34375 252.367188 212.265625 253.164062 212.105469 C 253.964844 211.945312 254.738281 211.710938 255.492188 211.398438 C 256.242188 211.085938 256.957031 210.703125 257.636719 210.25 C 258.3125 209.800781 258.9375 209.285156 259.515625 208.707031 C 260.089844 208.132812 260.605469 207.503906 261.058594 206.828125 C 261.507812 206.148438 261.890625 205.433594 262.203125 204.679688 C 262.515625 203.925781 262.75 203.148438 262.910156 202.351562 C 263.066406 201.550781 263.148438 200.742188 263.148438 199.929688 C 263.144531 199.113281 263.066406 198.308594 262.90625 197.507812 C 262.746094 196.710938 262.511719 195.9375 262.199219 195.183594 C 261.886719 194.433594 261.503906 193.71875 261.054688 193.039062 C 260.601562 192.363281 260.085938 191.738281 259.511719 191.160156 C 258.9375 190.585938 258.3125 190.070312 257.636719 189.617188 C 256.960938 189.167969 256.246094 188.785156 255.492188 188.472656 C 254.742188 188.160156 253.96875 187.921875 253.171875 187.765625 C 252.371094 187.605469 251.566406 187.523438 250.753906 187.523438 Z M 285.691406 212.867188 C 284.839844 212.867188 284 212.785156 283.167969 212.621094 C 282.335938 212.453125 281.527344 212.210938 280.742188 211.882812 C 279.957031 211.558594 279.210938 211.160156 278.503906 210.6875 C 277.796875 210.21875 277.144531 209.679688 276.542969 209.078125 C 275.945312 208.480469 275.40625 207.824219 274.9375 207.117188 C 274.464844 206.414062 274.066406 205.667969 273.738281 204.882812 C 273.414062 204.097656 273.167969 203.285156 273.003906 202.453125 C 272.839844 201.621094 272.753906 200.777344 272.753906 199.929688 C 272.753906 199.078125 272.835938 198.238281 273.003906 197.40625 C 273.167969 196.570312 273.414062 195.761719 273.738281 194.976562 C 274.0625 194.191406 274.460938 193.445312 274.933594 192.742188 C 275.402344 192.035156 275.9375 191.378906 276.539062 190.78125 C 277.140625 190.179688 277.792969 189.640625 278.5 189.171875 C 279.203125 188.699219 279.949219 188.300781 280.734375 187.972656 C 281.519531 187.648438 282.328125 187.402344 283.160156 187.238281 C 283.992188 187.074219 284.832031 186.988281 285.683594 186.988281 C 286.53125 186.988281 287.371094 187.074219 288.207031 187.238281 C 289.039062 187.40625 289.847656 187.652344 290.632812 187.976562 C 291.414062 188.300781 292.160156 188.699219 292.867188 189.171875 C 293.574219 189.644531 294.226562 190.183594 294.824219 190.785156 C 295.425781 191.382812 295.960938 192.039062 296.433594 192.746094 C 296.90625 193.453125 297.304688 194.199219 297.628906 194.984375 C 297.953125 195.769531 298.195312 196.578125 298.363281 197.410156 C 298.527344 198.246094 298.609375 199.085938 298.609375 199.9375 C 298.609375 200.785156 298.523438 201.625 298.359375 202.457031 C 298.191406 203.285156 297.949219 204.09375 297.625 204.875 C 297.300781 205.660156 296.902344 206.402344 296.433594 207.109375 C 295.960938 207.8125 295.425781 208.464844 294.828125 209.066406 C 294.230469 209.664062 293.582031 210.203125 292.878906 210.675781 C 292.175781 211.144531 291.429688 211.546875 290.648438 211.871094 C 289.867188 212.195312 289.0625 212.445312 288.230469 212.613281 C 287.402344 212.78125 286.5625 212.863281 285.71875 212.867188 Z M 285.691406 187.515625 C 284.875 187.511719 284.070312 187.59375 283.269531 187.75 C 282.472656 187.910156 281.695312 188.144531 280.941406 188.457031 C 280.191406 188.765625 279.476562 189.148438 278.796875 189.601562 C 278.121094 190.054688 277.492188 190.570312 276.917969 191.144531 C 276.339844 191.722656 275.828125 192.347656 275.375 193.027344 C 274.921875 193.703125 274.539062 194.417969 274.226562 195.171875 C 273.914062 195.925781 273.679688 196.699219 273.519531 197.5 C 273.359375 198.300781 273.28125 199.105469 273.28125 199.921875 C 273.277344 200.738281 273.359375 201.546875 273.515625 202.34375 C 273.675781 203.144531 273.910156 203.921875 274.222656 204.675781 C 274.535156 205.429688 274.917969 206.144531 275.367188 206.824219 C 275.820312 207.5 276.335938 208.128906 276.910156 208.703125 C 277.488281 209.28125 278.113281 209.796875 278.789062 210.25 C 279.46875 210.703125 280.183594 211.085938 280.933594 211.398438 C 281.6875 211.710938 282.464844 211.945312 283.261719 212.105469 C 284.0625 212.261719 284.867188 212.34375 285.683594 212.34375 C 286.496094 212.34375 287.304688 212.265625 288.101562 212.105469 C 288.898438 211.945312 289.675781 211.710938 290.429688 211.398438 C 291.179688 211.085938 291.894531 210.703125 292.574219 210.25 C 293.25 209.800781 293.875 209.285156 294.453125 208.707031 C 295.027344 208.132812 295.542969 207.503906 295.996094 206.828125 C 296.445312 206.148438 296.828125 205.433594 297.140625 204.679688 C 297.453125 203.925781 297.6875 203.148438 297.847656 202.351562 C 298.003906 201.550781 298.085938 200.742188 298.085938 199.929688 C 298.082031 199.117188 298.003906 198.308594 297.84375 197.511719 C 297.683594 196.714844 297.449219 195.941406 297.136719 195.191406 C 296.824219 194.441406 296.445312 193.726562 295.992188 193.050781 C 295.542969 192.375 295.03125 191.75 294.457031 191.171875 C 293.882812 190.597656 293.257812 190.082031 292.582031 189.628906 C 291.910156 189.175781 291.199219 188.792969 290.449219 188.480469 C 289.699219 188.167969 288.925781 187.929688 288.128906 187.769531 C 287.332031 187.609375 286.527344 187.527344 285.71875 187.523438 Z M 285.691406 187.515625 " fill-opacity="1" fill-rule="nonzero"/><path fill="#ffffff" d="M 169.191406 57.84375 L 108.054688 57.84375 C 107.953125 57.859375 107.863281 57.835938 107.785156 57.769531 C 107.707031 57.703125 107.667969 57.617188 107.667969 57.515625 C 107.667969 57.414062 107.707031 57.328125 107.785156 57.261719 C 107.863281 57.195312 107.953125 57.171875 108.054688 57.1875 L 169.191406 57.1875 C 169.292969 57.171875 169.382812 57.195312 169.460938 57.261719 C 169.539062 57.328125 169.578125 57.414062 169.578125 57.515625 C 169.578125 57.617188 169.539062 57.703125 169.460938 57.769531 C 169.382812 57.835938 169.292969 57.859375 169.191406 57.84375 Z M 169.523438 63.640625 C 169.523438 63.546875 169.492188 63.46875 169.425781 63.40625 C 169.363281 63.339844 169.285156 63.308594 169.191406 63.308594 L 108.054688 63.308594 C 107.960938 63.308594 107.882812 63.339844 107.816406 63.40625 C 107.753906 63.46875 107.722656 63.546875 107.722656 63.640625 C 107.722656 63.730469 107.753906 63.808594 107.820312 63.871094 C 107.882812 63.933594 107.960938 63.964844 108.054688 63.964844 L 169.191406 63.964844 C 169.285156 63.964844 169.363281 63.933594 169.425781 63.871094 C 169.492188 63.808594 169.523438 63.730469 169.523438 63.640625 Z M 169.523438 70.632812 C 169.523438 70.542969 169.488281 70.46875 169.425781 70.40625 C 169.359375 70.34375 169.28125 70.3125 169.191406 70.3125 L 108.054688 70.3125 C 107.953125 70.292969 107.863281 70.320312 107.785156 70.386719 C 107.707031 70.453125 107.667969 70.535156 107.667969 70.636719 C 107.667969 70.742188 107.707031 70.824219 107.785156 70.890625 C 107.863281 70.957031 107.953125 70.984375 108.054688 70.964844 L 169.191406 70.964844 C 169.285156 70.964844 169.363281 70.933594 169.425781 70.867188 C 169.492188 70.804688 169.523438 70.726562 169.523438 70.632812 Z M 169.523438 70.632812 " fill-opacity="1" fill-rule="nonzero"/><path fill="#db868e" d="M 166.90625 197.882812 C 166.90625 198.144531 166.855469 198.394531 166.757812 198.632812 C 166.660156 198.875 166.519531 199.085938 166.335938 199.273438 C 166.152344 199.457031 165.941406 199.597656 165.699219 199.699219 C 165.460938 199.800781 165.210938 199.847656 164.949219 199.851562 C 164.691406 199.851562 164.441406 199.800781 164.199219 199.703125 C 163.960938 199.601562 163.75 199.460938 163.566406 199.277344 C 163.382812 199.09375 163.238281 198.878906 163.140625 198.640625 C 163.039062 198.398438 162.992188 198.148438 162.992188 197.886719 C 162.992188 197.628906 163.042969 197.378906 163.140625 197.136719 C 163.242188 196.898438 163.382812 196.6875 163.570312 196.503906 C 163.753906 196.320312 163.964844 196.179688 164.207031 196.078125 C 164.445312 195.980469 164.695312 195.933594 164.957031 195.933594 C 165.214844 195.933594 165.464844 195.984375 165.703125 196.082031 C 165.941406 196.179688 166.152344 196.320312 166.335938 196.503906 C 166.515625 196.6875 166.65625 196.898438 166.757812 197.136719 C 166.855469 197.375 166.90625 197.625 166.90625 197.882812 Z M 174.703125 203.128906 C 174.445312 203.128906 174.199219 203.179688 173.957031 203.277344 C 173.71875 203.375 173.507812 203.515625 173.328125 203.699219 C 173.144531 203.882812 173.003906 204.09375 172.90625 204.332031 C 172.804688 204.570312 172.757812 204.820312 172.757812 205.078125 C 172.757812 205.335938 172.804688 205.585938 172.90625 205.824219 C 173.003906 206.0625 173.144531 206.273438 173.328125 206.457031 C 173.507812 206.640625 173.71875 206.78125 173.957031 206.878906 C 174.199219 206.976562 174.445312 207.027344 174.703125 207.027344 C 174.960938 207.027344 175.210938 206.976562 175.449219 206.878906 C 175.6875 206.78125 175.898438 206.640625 176.082031 206.457031 C 176.265625 206.273438 176.40625 206.0625 176.503906 205.824219 C 176.601562 205.585938 176.652344 205.335938 176.652344 205.078125 C 176.65625 204.816406 176.613281 204.5625 176.515625 204.320312 C 176.421875 204.074219 176.28125 203.859375 176.097656 203.675781 C 175.914062 203.488281 175.699219 203.34375 175.460938 203.242188 C 175.21875 203.140625 174.964844 203.09375 174.703125 203.09375 Z M 189.324219 189.296875 C 189.066406 189.296875 188.816406 189.34375 188.574219 189.445312 C 188.335938 189.542969 188.121094 189.683594 187.9375 189.867188 C 187.753906 190.050781 187.609375 190.261719 187.511719 190.503906 C 187.410156 190.742188 187.359375 190.992188 187.359375 191.253906 C 187.359375 191.511719 187.410156 191.761719 187.507812 192.003906 C 187.609375 192.246094 187.75 192.457031 187.933594 192.640625 C 188.117188 192.824219 188.328125 192.964844 188.570312 193.066406 C 188.808594 193.164062 189.058594 193.214844 189.320312 193.214844 C 189.578125 193.214844 189.828125 193.164062 190.070312 193.0625 C 190.308594 192.964844 190.519531 192.820312 190.703125 192.636719 C 190.886719 192.453125 191.027344 192.238281 191.128906 192 C 191.226562 191.757812 191.273438 191.507812 191.273438 191.246094 C 191.277344 190.984375 191.230469 190.734375 191.136719 190.492188 C 191.039062 190.246094 190.898438 190.03125 190.714844 189.847656 C 190.53125 189.660156 190.320312 189.515625 190.078125 189.414062 C 189.839844 189.3125 189.585938 189.261719 189.324219 189.261719 Z M 202 202.71875 C 201.738281 202.71875 201.488281 202.765625 201.25 202.867188 C 201.007812 202.964844 200.796875 203.109375 200.613281 203.292969 C 200.429688 203.476562 200.289062 203.6875 200.191406 203.929688 C 200.089844 204.167969 200.042969 204.417969 200.042969 204.679688 C 200.042969 204.9375 200.09375 205.1875 200.191406 205.429688 C 200.292969 205.667969 200.433594 205.878906 200.617188 206.0625 C 200.800781 206.246094 201.015625 206.386719 201.253906 206.488281 C 201.496094 206.585938 201.746094 206.636719 202.003906 206.632812 C 202.265625 206.632812 202.515625 206.582031 202.753906 206.484375 C 202.992188 206.382812 203.203125 206.238281 203.386719 206.054688 C 203.570312 205.871094 203.710938 205.660156 203.808594 205.417969 C 203.90625 205.175781 203.957031 204.925781 203.957031 204.667969 C 203.960938 204.40625 203.914062 204.152344 203.816406 203.90625 C 203.71875 203.664062 203.578125 203.449219 203.394531 203.261719 C 203.210938 203.074219 202.996094 202.933594 202.753906 202.832031 C 202.511719 202.730469 202.261719 202.679688 202 202.683594 Z M 202 202.71875 " fill-opacity="1" fill-rule="nonzero"/><path fill="#000000" d="M 279.226562 283.804688 L 193.421875 283.804688 C 193.128906 283.804688 192.835938 283.773438 192.550781 283.71875 C 192.261719 283.660156 191.984375 283.574219 191.710938 283.460938 C 191.441406 283.347656 191.183594 283.210938 190.941406 283.046875 C 190.695312 282.882812 190.46875 282.699219 190.261719 282.492188 C 190.054688 282.285156 189.871094 282.058594 189.707031 281.8125 C 189.542969 281.570312 189.40625 281.3125 189.292969 281.039062 C 189.179688 280.769531 189.09375 280.488281 189.039062 280.203125 C 188.980469 279.914062 188.949219 279.621094 188.949219 279.328125 L 188.949219 251.964844 C 188.949219 251.671875 188.980469 251.378906 189.039062 251.089844 C 189.09375 250.804688 189.179688 250.523438 189.292969 250.253906 C 189.40625 249.980469 189.542969 249.722656 189.707031 249.480469 C 189.871094 249.234375 190.054688 249.007812 190.261719 248.800781 C 190.46875 248.59375 190.695312 248.410156 190.9375 248.246094 C 191.183594 248.082031 191.441406 247.945312 191.710938 247.832031 C 191.984375 247.71875 192.261719 247.632812 192.550781 247.574219 C 192.835938 247.519531 193.128906 247.488281 193.421875 247.488281 L 279.226562 247.488281 C 279.519531 247.488281 279.8125 247.519531 280.097656 247.574219 C 280.386719 247.632812 280.664062 247.71875 280.9375 247.832031 C 281.207031 247.945312 281.464844 248.082031 281.707031 248.246094 C 281.953125 248.410156 282.175781 248.59375 282.382812 248.800781 C 282.589844 249.011719 282.777344 249.234375 282.9375 249.480469 C 283.101562 249.722656 283.238281 249.980469 283.351562 250.253906 C 283.464844 250.523438 283.546875 250.804688 283.605469 251.09375 C 283.660156 251.378906 283.691406 251.671875 283.691406 251.964844 L 283.691406 279.292969 C 283.691406 279.589844 283.667969 279.882812 283.609375 280.171875 C 283.554688 280.460938 283.472656 280.742188 283.359375 281.015625 C 283.25 281.289062 283.113281 281.546875 282.949219 281.792969 C 282.789062 282.039062 282.605469 282.269531 282.394531 282.476562 C 282.1875 282.6875 281.964844 282.875 281.71875 283.039062 C 281.472656 283.207031 281.214844 283.34375 280.945312 283.457031 C 280.671875 283.574219 280.390625 283.660156 280.101562 283.714844 C 279.8125 283.773438 279.523438 283.804688 279.226562 283.804688 Z M 193.421875 248.179688 C 192.914062 248.179688 192.429688 248.277344 191.960938 248.46875 C 191.492188 248.664062 191.082031 248.941406 190.722656 249.296875 C 190.363281 249.65625 190.089844 250.070312 189.894531 250.539062 C 189.703125 251.003906 189.605469 251.492188 189.605469 252 L 189.605469 279.328125 C 189.605469 279.835938 189.703125 280.324219 189.894531 280.789062 C 190.089844 281.257812 190.363281 281.671875 190.722656 282.03125 C 191.082031 282.386719 191.492188 282.664062 191.960938 282.859375 C 192.429688 283.050781 192.914062 283.148438 193.421875 283.148438 L 279.226562 283.148438 C 279.734375 283.148438 280.21875 283.050781 280.683594 282.855469 C 281.152344 282.660156 281.5625 282.386719 281.921875 282.027344 C 282.277344 281.667969 282.554688 281.257812 282.746094 280.789062 C 282.9375 280.320312 283.035156 279.835938 283.035156 279.328125 L 283.035156 251.964844 C 283.035156 251.457031 282.9375 250.972656 282.746094 250.503906 C 282.554688 250.035156 282.277344 249.625 281.921875 249.265625 C 281.5625 248.90625 281.152344 248.632812 280.683594 248.4375 C 280.21875 248.242188 279.734375 248.144531 279.226562 248.144531 Z M 193.421875 248.179688 " fill-opacity="1" fill-rule="nonzero"/><path fill="#db868e" d="M 218.53125 264.40625 C 218.535156 265.078125 218.46875 265.746094 218.335938 266.40625 C 218.207031 267.066406 218.011719 267.707031 217.757812 268.332031 C 217.5 268.953125 217.183594 269.542969 216.8125 270.105469 C 216.4375 270.664062 216.011719 271.183594 215.539062 271.660156 C 215.0625 272.136719 214.542969 272.5625 213.984375 272.9375 C 213.425781 273.3125 212.835938 273.628906 212.214844 273.886719 C 211.59375 274.144531 210.953125 274.339844 210.292969 274.472656 C 209.632812 274.601562 208.964844 274.667969 208.292969 274.667969 C 207.621094 274.667969 206.953125 274.605469 206.292969 274.472656 C 205.632812 274.34375 204.992188 274.148438 204.371094 273.890625 C 203.75 273.632812 203.160156 273.316406 202.597656 272.945312 C 202.039062 272.570312 201.523438 272.144531 201.046875 271.667969 C 200.570312 271.191406 200.144531 270.675781 199.769531 270.113281 C 199.398438 269.554688 199.082031 268.964844 198.824219 268.339844 C 198.566406 267.71875 198.371094 267.078125 198.238281 266.417969 C 198.109375 265.757812 198.042969 265.089844 198.042969 264.417969 C 198.042969 263.742188 198.109375 263.078125 198.238281 262.414062 C 198.371094 261.753906 198.5625 261.113281 198.820312 260.492188 C 199.078125 259.871094 199.394531 259.277344 199.769531 258.71875 C 200.140625 258.15625 200.566406 257.640625 201.042969 257.164062 C 201.519531 256.6875 202.035156 256.261719 202.59375 255.886719 C 203.152344 255.511719 203.746094 255.199219 204.367188 254.941406 C 204.988281 254.683594 205.628906 254.488281 206.289062 254.355469 C 206.949219 254.222656 207.613281 254.160156 208.289062 254.160156 C 208.960938 254.160156 209.625 254.222656 210.285156 254.355469 C 210.945312 254.488281 211.585938 254.679688 212.207031 254.9375 C 212.828125 255.195312 213.417969 255.511719 213.976562 255.886719 C 214.535156 256.257812 215.054688 256.683594 215.527344 257.160156 C 216.003906 257.636719 216.429688 258.152344 216.804688 258.710938 C 217.175781 259.269531 217.492188 259.863281 217.75 260.484375 C 218.007812 261.105469 218.203125 261.746094 218.335938 262.40625 C 218.464844 263.066406 218.53125 263.730469 218.53125 264.40625 Z M 218.53125 264.40625 " fill-opacity="1" fill-rule="nonzero"/><path fill="#000000" d="M 272.257812 272.238281 L 225.449219 272.238281 C 225.265625 272.207031 225.171875 272.097656 225.171875 271.910156 C 225.171875 271.722656 225.265625 271.613281 225.449219 271.582031 L 272.257812 271.582031 C 272.441406 271.613281 272.535156 271.722656 272.535156 271.910156 C 272.535156 272.097656 272.441406 272.207031 272.257812 272.238281 Z M 272.582031 264.914062 C 272.578125 264.824219 272.546875 264.75 272.484375 264.6875 C 272.421875 264.625 272.347656 264.589844 272.257812 264.589844 L 225.449219 264.589844 C 225.265625 264.621094 225.171875 264.726562 225.171875 264.917969 C 225.171875 265.105469 225.265625 265.214844 225.449219 265.246094 L 272.257812 265.246094 C 272.347656 265.242188 272.421875 265.207031 272.488281 265.144531 C 272.550781 265.078125 272.582031 265.003906 272.582031 264.914062 Z M 237.644531 258.792969 C 237.644531 258.699219 237.609375 258.621094 237.546875 258.558594 C 237.480469 258.492188 237.402344 258.460938 237.3125 258.460938 L 225.449219 258.460938 C 225.359375 258.460938 225.285156 258.496094 225.222656 258.558594 C 225.160156 258.625 225.128906 258.703125 225.128906 258.792969 C 225.128906 258.882812 225.160156 258.957031 225.222656 259.019531 C 225.285156 259.085938 225.359375 259.117188 225.449219 259.117188 L 237.292969 259.117188 C 237.386719 259.117188 237.464844 259.085938 237.527344 259.023438 C 237.59375 258.960938 237.625 258.882812 237.625 258.792969 Z M 237.644531 258.792969 " fill-opacity="1" fill-rule="nonzero"/><path fill="#ffffff" d="M 195.554688 74.566406 C 194.863281 74.566406 194.183594 74.5 193.507812 74.367188 C 192.832031 74.230469 192.179688 74.035156 191.542969 73.769531 C 190.90625 73.507812 190.300781 73.183594 189.730469 72.800781 C 189.15625 72.417969 188.628906 71.984375 188.140625 71.496094 C 187.65625 71.007812 187.21875 70.476562 186.839844 69.90625 C 186.457031 69.332031 186.132812 68.726562 185.871094 68.09375 C 185.605469 67.457031 185.40625 66.800781 185.273438 66.125 C 185.140625 65.449219 185.070312 64.765625 185.070312 64.078125 C 185.070312 63.386719 185.140625 62.707031 185.273438 62.03125 C 185.40625 61.355469 185.605469 60.699219 185.871094 60.0625 C 186.132812 59.425781 186.457031 58.820312 186.839844 58.25 C 187.21875 57.675781 187.65625 57.144531 188.140625 56.660156 C 188.628906 56.171875 189.15625 55.738281 189.730469 55.355469 C 190.300781 54.972656 190.90625 54.648438 191.542969 54.382812 C 192.179688 54.121094 192.832031 53.921875 193.507812 53.789062 C 194.183594 53.652344 194.863281 53.585938 195.554688 53.585938 C 196.242188 53.585938 196.921875 53.652344 197.597656 53.789062 C 198.273438 53.921875 198.929688 54.121094 199.5625 54.382812 C 200.199219 54.648438 200.804688 54.972656 201.375 55.355469 C 201.949219 55.738281 202.476562 56.171875 202.964844 56.660156 C 203.449219 57.144531 203.886719 57.675781 204.269531 58.25 C 204.648438 58.820312 204.972656 59.425781 205.234375 60.0625 C 205.5 60.699219 205.699219 61.355469 205.832031 62.03125 C 205.96875 62.707031 206.035156 63.386719 206.035156 64.078125 C 206.035156 64.765625 205.96875 65.449219 205.832031 66.125 C 205.699219 66.800781 205.5 67.457031 205.234375 68.09375 C 204.972656 68.726562 204.648438 69.332031 204.269531 69.90625 C 203.886719 70.476562 203.449219 71.007812 202.964844 71.496094 C 202.476562 71.984375 201.949219 72.417969 201.375 72.800781 C 200.804688 73.183594 200.199219 73.507812 199.5625 73.769531 C 198.929688 74.035156 198.273438 74.230469 197.597656 74.367188 C 196.921875 74.5 196.242188 74.566406 195.554688 74.566406 Z M 195.554688 54.214844 C 194.90625 54.214844 194.265625 54.277344 193.632812 54.40625 C 193 54.53125 192.382812 54.71875 191.785156 54.964844 C 191.1875 55.214844 190.621094 55.515625 190.085938 55.875 C 189.546875 56.234375 189.050781 56.644531 188.59375 57.101562 C 188.136719 57.558594 187.726562 58.054688 187.367188 58.59375 C 187.007812 59.132812 186.707031 59.699219 186.457031 60.296875 C 186.210938 60.894531 186.023438 61.511719 185.898438 62.144531 C 185.773438 62.78125 185.710938 63.421875 185.710938 64.070312 C 185.710938 64.714844 185.773438 65.355469 185.898438 65.992188 C 186.023438 66.625 186.210938 67.242188 186.457031 67.839844 C 186.707031 68.4375 187.007812 69.003906 187.367188 69.542969 C 187.726562 70.082031 188.136719 70.578125 188.59375 71.035156 C 189.050781 71.492188 189.546875 71.902344 190.085938 72.261719 C 190.621094 72.621094 191.1875 72.921875 191.785156 73.171875 C 192.382812 73.417969 193 73.605469 193.632812 73.730469 C 194.265625 73.859375 194.90625 73.921875 195.554688 73.921875 C 196.199219 73.921875 196.839844 73.859375 197.472656 73.730469 C 198.105469 73.605469 198.722656 73.417969 199.320312 73.171875 C 199.917969 72.921875 200.484375 72.621094 201.023438 72.261719 C 201.558594 71.902344 202.054688 71.492188 202.511719 71.035156 C 202.96875 70.578125 203.378906 70.082031 203.738281 69.542969 C 204.097656 69.003906 204.398438 68.4375 204.648438 67.839844 C 204.894531 67.242188 205.082031 66.625 205.207031 65.992188 C 205.332031 65.355469 205.398438 64.714844 205.398438 64.070312 C 205.394531 63.421875 205.332031 62.78125 205.207031 62.148438 C 205.078125 61.511719 204.890625 60.898438 204.644531 60.300781 C 204.398438 59.703125 204.09375 59.132812 203.734375 58.597656 C 203.375 58.058594 202.96875 57.5625 202.511719 57.105469 C 202.054688 56.648438 201.558594 56.238281 201.019531 55.878906 C 200.484375 55.519531 199.914062 55.214844 199.320312 54.96875 C 198.722656 54.71875 198.105469 54.53125 197.472656 54.40625 C 196.839844 54.28125 196.199219 54.214844 195.554688 54.214844 Z M 195.554688 54.214844 " fill-opacity="1" fill-rule="nonzero"/><path fill="#db868e" d="M 207.082031 59.707031 L 196.539062 64.4375 L 200.113281 53.234375 C 205.597656 53.621094 207.082031 59.707031 207.082031 59.707031 Z M 207.082031 59.707031 " fill-opacity="1" fill-rule="nonzero"/><path fill="#ffffff" d="M 196.539062 64.769531 C 196.457031 64.765625 196.382812 64.734375 196.320312 64.679688 C 196.214844 64.585938 196.1875 64.472656 196.234375 64.339844 L 199.796875 53.132812 C 199.855469 52.96875 199.96875 52.894531 200.136719 52.902344 C 205.796875 53.304688 207.378906 59.566406 207.398438 59.628906 C 207.441406 59.804688 207.382812 59.933594 207.214844 60.011719 L 196.679688 64.734375 C 196.636719 64.757812 196.589844 64.769531 196.539062 64.769531 Z M 200.339844 53.585938 L 197.082031 63.839844 L 206.6875 59.523438 C 206.339844 58.410156 204.699219 54.050781 200.339844 53.585938 Z M 200.339844 53.585938 " fill-opacity="1" fill-rule="nonzero"/><path fill="#000000" d="M 363.511719 203.375 C 363.320312 203.371094 363.210938 203.273438 363.179688 203.085938 L 361.695312 190.257812 C 361.453125 188.199219 361.03125 186.175781 360.429688 184.191406 L 358.683594 178.414062 C 358.65625 178.328125 358.664062 178.246094 358.707031 178.164062 C 358.746094 178.085938 358.8125 178.03125 358.898438 178.007812 C 358.984375 177.980469 359.066406 177.988281 359.144531 178.027344 C 359.222656 178.070312 359.277344 178.136719 359.304688 178.21875 L 361.050781 184 C 361.671875 186.023438 362.101562 188.085938 362.34375 190.1875 L 363.84375 202.988281 C 363.855469 203.078125 363.832031 203.15625 363.777344 203.226562 C 363.71875 203.296875 363.644531 203.335938 363.558594 203.347656 Z M 363.511719 203.375 " fill-opacity="1" fill-rule="nonzero"/><path fill="#db868e" d="M 83.40625 148.292969 L 74.546875 169.589844 C 74.445312 169.839844 74.316406 170.070312 74.15625 170.285156 C 74 170.5 73.816406 170.691406 73.613281 170.863281 C 73.410156 171.035156 73.1875 171.179688 72.949219 171.300781 C 72.710938 171.417969 72.460938 171.507812 72.199219 171.566406 C 71.941406 171.628906 71.675781 171.65625 71.410156 171.652344 C 71.144531 171.648438 70.882812 171.613281 70.621094 171.546875 C 70.363281 171.480469 70.117188 171.386719 69.882812 171.261719 C 69.644531 171.136719 69.429688 170.984375 69.230469 170.808594 L 55.304688 158.453125 C 55.230469 160.308594 54.839844 162.097656 54.140625 163.816406 C 53.4375 165.535156 52.464844 167.085938 51.21875 168.464844 C 52.265625 169.21875 53.195312 170.101562 54.003906 171.113281 C 54.8125 172.121094 55.46875 173.222656 55.976562 174.410156 C 56.484375 175.601562 56.828125 176.835938 57 178.117188 C 57.171875 179.398438 57.167969 180.679688 56.992188 181.960938 C 56.242188 189.105469 53.777344 194.628906 45.296875 195.785156 C 45.066406 195.816406 44.839844 195.839844 44.605469 195.84375 C 41.789062 196.589844 38.925781 196.972656 36.011719 197 C 34.050781 197.011719 32.117188 196.789062 30.214844 196.328125 C 26.5625 195.453125 17.214844 193.914062 17.113281 193.894531 L 16.710938 193.835938 L 16.710938 193.425781 C 16.710938 193.152344 17.007812 165.816406 22.449219 153.101562 C 27.890625 140.390625 31.941406 134.707031 31.941406 134.65625 L 32.074219 134.472656 L 32.300781 134.472656 C 33.121094 134.472656 52.546875 133.273438 56.757812 139.125 C 60.25 144.003906 67.902344 153.023438 69.910156 155.386719 L 75.0625 143.511719 Z M 83.40625 148.292969 " fill-opacity="1" fill-rule="nonzero"/><path fill="#000000" d="M 53.777344 107.335938 C 53.777344 107.335938 60.617188 104.828125 61.753906 114.636719 C 61.753906 114.636719 62.871094 121.804688 55.945312 122.957031 C 54.574219 123.1875 52.527344 123.832031 53.4375 128.886719 C 53.4375 128.886719 56.851562 137.324219 52.757812 140.976562 C 51.464844 142.121094 50.25 142.796875 46.144531 143.03125 C 44.109375 143.136719 44.476562 144.867188 42.046875 150.09375 C 38.308594 158.148438 22.910156 168.796875 7.191406 156.714844 C 4.367188 154.554688 0.289062 148.722656 10.8125 143.050781 C 17.660156 139.34375 32.457031 136.660156 35.191406 123.65625 C 35.191406 123.640625 38.605469 103.347656 53.777344 107.335938 Z M 53.777344 107.335938 " fill-opacity="1" fill-rule="nonzero"/><path fill="#ffffff" d="M 158.972656 262.710938 C 158.089844 263.085938 157.164062 263.253906 156.203125 263.214844 C 155.558594 263.25 154.929688 263.15625 154.324219 262.929688 C 153.714844 262.703125 153.179688 262.363281 152.710938 261.914062 C 152.273438 261.441406 151.945312 260.898438 151.722656 260.292969 C 151.5 259.6875 151.40625 259.0625 151.4375 258.417969 C 151.40625 257.71875 151.519531 257.039062 151.765625 256.386719 C 152.015625 255.730469 152.382812 255.152344 152.867188 254.648438 C 153.363281 254.164062 153.929688 253.796875 154.578125 253.542969 C 155.222656 253.292969 155.890625 253.179688 156.582031 253.207031 C 157.398438 253.1875 158.195312 253.304688 158.972656 253.5625 L 158.972656 255.671875 C 158.289062 255.265625 157.550781 255.070312 156.753906 255.085938 C 155.894531 255.054688 155.160156 255.347656 154.554688 255.960938 C 153.957031 256.621094 153.679688 257.394531 153.722656 258.285156 C 153.679688 259.140625 153.941406 259.886719 154.511719 260.523438 C 155.085938 261.136719 155.792969 261.429688 156.632812 261.398438 C 157.46875 261.40625 158.25 261.199219 158.972656 260.777344 Z M 160.5625 262.710938 L 160.5625 260.539062 C 161.332031 261.195312 162.21875 261.527344 163.226562 261.527344 C 163.46875 261.53125 163.707031 261.507812 163.945312 261.457031 C 164.125 261.417969 164.296875 261.347656 164.457031 261.25 C 164.585938 261.171875 164.6875 261.070312 164.765625 260.941406 C 164.835938 260.820312 164.871094 260.691406 164.871094 260.550781 C 164.867188 260.363281 164.8125 260.195312 164.703125 260.042969 C 164.582031 259.875 164.433594 259.738281 164.257812 259.632812 C 164.046875 259.492188 163.824219 259.371094 163.59375 259.265625 L 162.765625 258.90625 C 162.105469 258.660156 161.542969 258.277344 161.078125 257.753906 C 160.691406 257.273438 160.503906 256.726562 160.519531 256.109375 C 160.507812 255.648438 160.609375 255.214844 160.824219 254.804688 C 161.027344 254.449219 161.300781 254.15625 161.648438 253.929688 C 162.023438 253.691406 162.425781 253.519531 162.859375 253.414062 C 163.339844 253.304688 163.828125 253.25 164.320312 253.25 C 164.765625 253.246094 165.210938 253.277344 165.65625 253.347656 C 166.027344 253.398438 166.386719 253.492188 166.738281 253.625 L 166.738281 255.644531 C 166.570312 255.53125 166.390625 255.429688 166.207031 255.347656 C 166.015625 255.257812 165.816406 255.191406 165.613281 255.136719 C 165.414062 255.078125 165.214844 255.035156 165.007812 255.007812 C 164.820312 254.996094 164.628906 254.996094 164.441406 255.007812 C 164.214844 255 163.992188 255.023438 163.769531 255.078125 C 163.585938 255.113281 163.414062 255.179688 163.253906 255.277344 C 163.117188 255.351562 163.011719 255.453125 162.929688 255.582031 C 162.851562 255.707031 162.8125 255.839844 162.816406 255.984375 C 162.820312 256.144531 162.859375 256.289062 162.9375 256.421875 C 163.042969 256.5625 163.164062 256.683594 163.304688 256.78125 C 163.488281 256.910156 163.679688 257.023438 163.882812 257.121094 C 164.109375 257.234375 164.363281 257.347656 164.640625 257.464844 C 165.003906 257.613281 165.351562 257.785156 165.691406 257.980469 C 165.980469 258.152344 166.242188 258.359375 166.476562 258.601562 C 166.703125 258.824219 166.871094 259.089844 166.984375 259.386719 C 167.265625 260.199219 167.222656 260.996094 166.851562 261.773438 C 166.636719 262.140625 166.34375 262.433594 165.980469 262.648438 C 165.601562 262.886719 165.195312 263.050781 164.757812 263.136719 C 164.269531 263.242188 163.777344 263.289062 163.28125 263.285156 C 162.769531 263.289062 162.261719 263.246094 161.761719 263.15625 C 161.339844 263.054688 160.941406 262.898438 160.5625 262.683594 Z M 168.652344 262.710938 L 168.652344 260.539062 C 169.03125 260.863281 169.457031 261.113281 169.925781 261.285156 C 170.378906 261.449219 170.84375 261.527344 171.324219 261.527344 C 171.566406 261.53125 171.804688 261.507812 172.039062 261.457031 C 172.222656 261.414062 172.394531 261.34375 172.554688 261.25 C 172.679688 261.167969 172.78125 261.066406 172.863281 260.941406 C 172.925781 260.820312 172.957031 260.6875 172.957031 260.550781 C 172.957031 260.363281 172.90625 260.195312 172.800781 260.042969 C 172.675781 259.878906 172.527344 259.742188 172.355469 259.632812 C 172.140625 259.496094 171.921875 259.371094 171.691406 259.265625 L 170.859375 258.90625 C 170.199219 258.660156 169.636719 258.277344 169.167969 257.753906 C 168.785156 257.269531 168.601562 256.722656 168.617188 256.109375 C 168.597656 255.667969 168.6875 255.25 168.886719 254.855469 C 169.089844 254.464844 169.375 254.148438 169.742188 253.90625 C 170.117188 253.664062 170.523438 253.492188 170.957031 253.390625 C 171.4375 253.277344 171.921875 253.222656 172.414062 253.222656 C 172.863281 253.222656 173.308594 253.253906 173.753906 253.320312 C 174.121094 253.371094 174.480469 253.464844 174.828125 253.597656 L 174.828125 255.617188 C 174.660156 255.503906 174.488281 255.402344 174.300781 255.320312 C 173.917969 255.15625 173.519531 255.042969 173.105469 254.980469 C 172.917969 254.96875 172.726562 254.96875 172.539062 254.980469 C 172.308594 254.976562 172.082031 255 171.855469 255.050781 C 171.675781 255.085938 171.507812 255.15625 171.351562 255.25 C 171.214844 255.324219 171.109375 255.425781 171.027344 255.558594 C 170.945312 255.679688 170.902344 255.8125 170.90625 255.960938 C 170.902344 256.117188 170.949219 256.265625 171.035156 256.398438 C 171.140625 256.535156 171.261719 256.65625 171.402344 256.753906 C 171.585938 256.882812 171.777344 257 171.980469 257.097656 C 172.226562 257.222656 172.480469 257.335938 172.738281 257.4375 C 173.097656 257.585938 173.441406 257.757812 173.777344 257.953125 C 174.074219 258.121094 174.335938 258.328125 174.574219 258.574219 C 174.796875 258.800781 174.964844 259.0625 175.078125 259.359375 C 175.203125 259.695312 175.261719 260.039062 175.253906 260.390625 C 175.269531 260.871094 175.167969 261.320312 174.949219 261.746094 C 174.742188 262.105469 174.464844 262.398438 174.117188 262.621094 C 173.738281 262.863281 173.328125 263.023438 172.886719 263.109375 C 172.402344 263.214844 171.910156 263.265625 171.410156 263.261719 C 170.902344 263.261719 170.398438 263.21875 169.902344 263.128906 C 169.460938 263.039062 169.046875 262.890625 168.652344 262.683594 Z M 275.210938 77.226562 L 272.832031 77.226562 L 272.832031 72.90625 L 268.46875 72.90625 L 268.46875 77.199219 L 266.101562 77.199219 L 266.101562 66.707031 L 268.46875 66.707031 L 268.46875 70.90625 L 272.832031 70.90625 L 272.832031 66.707031 L 275.210938 66.707031 Z M 285.375 68.625 L 282.378906 68.625 L 282.378906 77.226562 L 279.996094 77.226562 L 279.996094 68.597656 L 277.027344 68.597656 L 277.027344 66.671875 L 285.386719 66.671875 Z M 299.148438 77.226562 L 296.808594 77.226562 L 296.808594 70.894531 C 296.808594 70.214844 296.808594 69.472656 296.898438 68.640625 L 296.84375 68.640625 C 296.765625 69.113281 296.652344 69.582031 296.511719 70.039062 L 294.050781 77.199219 L 292.109375 77.199219 L 289.605469 70.109375 C 289.460938 69.628906 289.351562 69.136719 289.273438 68.640625 L 289.210938 68.640625 C 289.273438 69.679688 289.296875 70.589844 289.296875 71.378906 L 289.296875 77.199219 L 287.167969 77.199219 L 287.167969 66.707031 L 290.660156 66.707031 L 292.808594 72.941406 C 292.980469 73.433594 293.105469 73.933594 293.183594 74.445312 L 293.226562 74.445312 C 293.339844 73.933594 293.480469 73.429688 293.648438 72.933594 L 295.796875 66.707031 L 299.175781 66.707031 Z M 308.179688 77.226562 L 301.917969 77.226562 L 301.917969 66.734375 L 304.285156 66.734375 L 304.285156 75.335938 L 308.179688 75.335938 Z M 293.59375 309.445312 L 287.480469 304.820312 L 293.59375 300.164062 L 292.773438 299.085938 L 285.96875 304.289062 C 285.796875 304.425781 285.707031 304.609375 285.707031 304.832031 C 285.710938 305.054688 285.800781 305.230469 285.980469 305.363281 L 292.816406 310.53125 Z M 310.75 305.363281 C 310.832031 305.300781 310.898438 305.21875 310.941406 305.125 C 310.988281 305.03125 311.011719 304.929688 311.011719 304.828125 C 311.011719 304.722656 310.988281 304.621094 310.941406 304.527344 C 310.898438 304.433594 310.832031 304.351562 310.75 304.289062 L 303.953125 299.085938 L 303.132812 300.164062 L 309.246094 304.820312 L 303.132812 309.445312 L 303.953125 310.53125 Z M 300.511719 298.886719 L 299.203125 298.5625 L 296.179688 310.722656 L 297.492188 311.054688 Z M 300.511719 298.886719 " fill-opacity="1" fill-rule="nonzero"/></svg>