<svg width="40" height="40" viewBox="0 0 40 40" fill="none" xmlns="http://www.w3.org/2000/svg">
<g clip-path="url(#clip0_124_12)">
<path d="M27.4733 19.9598L37.725 11.0532V28.7648L27.4733 19.9598ZM14.2633 21.4682L17.8633 24.5932C18.4283 25.0732 19.165 25.3632 19.97 25.3632H19.9983H19.9967H20.02C20.8267 25.3632 21.5633 25.0715 22.135 24.5882L22.13 24.5915L25.73 21.4665L36.6733 30.8648H3.325L14.2633 21.4682ZM3.31 8.9415H36.6933L20.6583 22.8682C20.478 23.0108 20.2549 23.0883 20.025 23.0882H20.0017H20.0033H19.98C19.7493 23.0885 19.5254 23.0103 19.345 22.8665L19.3467 22.8682L3.31 8.9415ZM2.275 11.0515L12.525 19.9582L2.275 28.7582V11.0515ZM38.275 6.98317C37.875 6.78317 37.405 6.6665 36.9067 6.6665H3.09833C2.61527 6.66662 2.13884 6.77902 1.70667 6.99484L1.725 6.9865C1.20762 7.24169 0.771913 7.63647 0.46709 8.12625C0.162268 8.61602 0.000478914 9.18128 0 9.75817L0 30.0448C0.00088234 30.8659 0.327421 31.653 0.907967 32.2335C1.48851 32.8141 2.27565 33.1406 3.09667 33.1415H36.9017C37.7227 33.1406 38.5098 32.8141 39.0904 32.2335C39.6709 31.653 39.9975 30.8659 39.9983 30.0448V9.75817C39.9983 8.5465 39.3 7.4965 38.2833 6.9915L38.265 6.98317H38.275Z" fill="#FF5B34"/>
</g>
<defs>
<clipPath id="clip0_124_12">
<rect width="40" height="40" fill="white"/>
</clipPath>
</defs>
</svg>
